<svg width="40" height="62" viewBox="0 0 40 62" fill="none" xmlns="http://www.w3.org/2000/svg">
<path fill-rule="evenodd" clip-rule="evenodd" d="M17.7951 0.0514589C8.20017 1.07332 0.676808 8.799 0.0376194 18.2866C-0.249718 22.5514 1.11607 27.9884 3.89063 33.6253C4.81141 35.4959 11.239 46.9943 16.0711 55.4155C16.8898 56.8423 17.987 58.7637 18.5092 59.6856C19.0315 60.6073 19.5467 61.5052 19.6543 61.6807L19.85 62L20.2151 61.3537C22.5514 57.2183 25.2586 52.4379 26.1633 50.8499C26.7812 49.7656 28.522 46.7072 30.0317 44.0534C31.5416 41.3997 33.327 38.2712 33.9993 37.1013C34.6718 35.9314 35.4131 34.624 35.6468 34.196C36.7744 32.1314 38.1579 28.4551 38.8488 25.6874C39.4911 23.1146 39.6807 21.73 39.68 19.6172C39.6793 17.5429 39.4833 16.162 38.9086 14.1812C37.2841 8.58193 33.1711 3.94911 27.7285 1.58809C25.2886 0.529599 23.1736 0.07024 20.4615 0.00984986C19.4263 -0.0131855 18.2264 0.00559557 17.7951 0.0514589ZM22.5299 10.1645C26.256 11.2629 29.0466 14.3681 29.6261 18.0608C29.7948 19.1358 29.6807 21.3125 29.4058 22.2632C28.2764 26.1695 24.759 29.0952 20.8162 29.4077C18.7118 29.5746 16.674 29.1593 15.0272 28.228C11.8414 26.4264 9.96957 23.2667 9.95671 19.6691C9.94678 16.8757 10.9665 14.4919 13 12.5546C13.4232 12.1514 13.9966 11.6682 14.2742 11.4805C15.0366 10.9656 16.3883 10.37 17.3246 10.1365C17.7847 10.0218 18.2552 9.90418 18.3702 9.87513C18.4852 9.84597 19.2616 9.83829 20.0955 9.85801C21.3548 9.88779 21.7672 9.93977 22.5299 10.1645Z" fill="#009ad8"/>
</svg>
