<svg width="17" height="18" viewBox="0 0 17 18" fill="none" xmlns="http://www.w3.org/2000/svg">
<path fill-rule="evenodd" clip-rule="evenodd" d="M8.42785 0.00512983C8.4051 0.0111544 8.37764 0.0245841 8.36684 0.0349806C8.35605 0.0453771 8.33419 0.05387 8.31826 0.05387C8.2909 0.05387 8.18104 0.0973387 8.10241 0.139301C8.08265 0.149844 8.05614 0.158463 8.04348 0.158463C8.02173 0.158463 7.99641 0.168587 7.81462 0.250107C7.77309 0.268745 7.72608 0.283974 7.71017 0.283974C7.69425 0.283974 7.67241 0.291484 7.66159 0.300667C7.6508 0.30985 7.59076 0.334785 7.52819 0.356059C7.46563 0.377354 7.40514 0.401159 7.39376 0.408983C7.38239 0.416807 7.32655 0.439671 7.26967 0.459794C7.2128 0.479939 7.14765 0.503974 7.1249 0.513199C7.10215 0.522424 7.04165 0.546522 6.99047 0.566709C6.93928 0.586916 6.86807 0.616286 6.83223 0.631975C6.79639 0.647664 6.75403 0.660508 6.73813 0.660508C6.7222 0.660508 6.70036 0.668373 6.68955 0.677975C6.67875 0.687576 6.62336 0.711988 6.56649 0.732237C6.50961 0.752486 6.43516 0.780873 6.40103 0.795307C6.36691 0.809761 6.30641 0.833504 6.2666 0.848084C6.22679 0.862664 6.16629 0.886386 6.13217 0.900778C6.08127 0.922261 5.92405 0.98167 5.74956 1.04535C5.38032 1.1801 5.24593 1.26599 5.3499 1.30082C5.37064 1.30777 5.41695 1.32657 5.45279 1.3426C5.48863 1.35862 5.52832 1.37174 5.54098 1.37174C5.55364 1.37174 5.58015 1.38036 5.5999 1.3909C5.68133 1.43435 5.78885 1.47633 5.81867 1.47633C5.83619 1.47633 5.85627 1.48574 5.86331 1.49725C5.87034 1.50875 5.89042 1.51817 5.90794 1.51817C5.93776 1.51817 6.04528 1.56015 6.12671 1.6036C6.14646 1.61414 6.17297 1.62276 6.18563 1.62276C6.19829 1.62276 6.23798 1.63577 6.27382 1.65169C6.30966 1.66759 6.37156 1.69254 6.41137 1.70712C6.45119 1.7217 6.51168 1.74545 6.54581 1.7599C6.57993 1.77434 6.65439 1.80272 6.71126 1.82297C6.76814 1.84322 6.8235 1.86763 6.83432 1.87723C6.84511 1.88684 6.86697 1.8947 6.8829 1.8947C6.91026 1.8947 7.02012 1.93817 7.09876 1.98013C7.11851 1.99068 7.14502 1.99929 7.15768 1.99929C7.17034 1.99929 7.21002 2.01224 7.24587 2.02808C7.28171 2.04389 7.41341 2.09606 7.53854 2.14397C7.66366 2.19187 7.78219 2.24011 7.80194 2.25115C7.82169 2.2622 7.8482 2.27123 7.86086 2.27123C7.87352 2.27123 7.91321 2.28425 7.94905 2.30017C7.98489 2.31606 8.04679 2.34102 8.0866 2.3556C8.12642 2.37018 8.18691 2.39371 8.22104 2.4079C8.25516 2.42208 8.31566 2.44561 8.35547 2.46019C8.39528 2.47477 8.45578 2.49826 8.4899 2.51238C8.52403 2.52652 8.59848 2.55424 8.65536 2.57399C8.71223 2.59371 8.79134 2.62375 8.83115 2.6407C8.92778 2.68184 8.96904 2.69873 9.07933 2.74224C9.13052 2.76244 9.20173 2.79181 9.23757 2.8075C9.27341 2.82319 9.31707 2.83604 9.33459 2.83604C9.35211 2.83604 9.37219 2.84545 9.37922 2.85695C9.38625 2.86846 9.41471 2.87787 9.44249 2.87787C9.47026 2.87787 9.49297 2.88729 9.49297 2.89879C9.49297 2.9103 9.50927 2.91977 9.52916 2.91983C9.54906 2.91992 9.59202 2.93404 9.62459 2.95121C9.65718 2.96841 9.70138 2.98246 9.72283 2.98246C9.74428 2.98246 9.76183 2.99104 9.76183 3.00154C9.76183 3.01204 9.79906 3.02698 9.84456 3.03476C9.89006 3.04254 9.92729 3.05518 9.92729 3.06285C9.92729 3.07854 10.0527 3.12611 10.1393 3.14329C10.1705 3.14948 10.1962 3.16291 10.1962 3.1731C10.1962 3.1833 10.211 3.19165 10.2292 3.19165C10.2601 3.19165 10.3667 3.23305 10.4492 3.27708C10.469 3.28762 10.4955 3.29624 10.5081 3.29624C10.5208 3.29624 10.5651 3.31116 10.6067 3.32936C10.6482 3.34758 10.7127 3.37582 10.7501 3.39211C10.7874 3.40843 10.8363 3.42175 10.8587 3.42175C10.881 3.42175 10.8993 3.43 10.8993 3.44006C10.8993 3.45012 10.9272 3.46399 10.9613 3.47089C10.9953 3.47777 11.0622 3.50248 11.1099 3.5258C11.1576 3.54911 11.2051 3.56818 11.2155 3.56818C11.2259 3.56818 11.2637 3.58143 11.2995 3.5976C11.3354 3.61377 11.4112 3.64362 11.4681 3.66395C11.525 3.68426 11.5808 3.7074 11.5922 3.71532C11.6036 3.72327 11.6402 3.73637 11.6735 3.74446C11.7069 3.75256 11.7714 3.77739 11.817 3.79965C11.8626 3.8219 11.9083 3.84012 11.9187 3.84012C11.929 3.84012 11.9669 3.85314 12.0027 3.86906C12.0385 3.88495 12.1004 3.90991 12.1402 3.92449C12.1801 3.93907 12.2406 3.96252 12.2747 3.9766C12.3088 3.99068 12.4205 4.03322 12.5229 4.07117C12.6252 4.1091 12.7179 4.14792 12.7286 4.15746C12.7394 4.16702 12.7678 4.17482 12.7917 4.17482C12.8156 4.17482 12.844 4.18279 12.8548 4.19252C12.8656 4.20225 12.9689 4.24582 13.0843 4.28935C13.3089 4.37405 13.4039 4.37846 13.534 4.31021C13.5663 4.29328 13.6103 4.27941 13.6317 4.27941C13.6531 4.27941 13.6707 4.27 13.6707 4.2585C13.6707 4.24699 13.687 4.23751 13.7069 4.23745C13.7268 4.23737 13.7698 4.22325 13.8023 4.20607C13.8349 4.18888 13.8737 4.17482 13.8885 4.17482C13.9034 4.17482 13.9419 4.16158 13.9741 4.14539C14.0327 4.11591 14.0553 4.10648 14.2291 4.03921C14.2803 4.0194 14.3383 3.99473 14.3581 3.9844C14.3778 3.97409 14.4044 3.96564 14.417 3.96564C14.4394 3.96564 14.5549 3.91865 14.627 3.8802C14.6467 3.86966 14.6732 3.86104 14.6859 3.86104C14.6985 3.86104 14.7382 3.8482 14.7741 3.83251C14.8327 3.80684 14.9537 3.75806 15.0667 3.71461C15.1797 3.67117 15.3008 3.62238 15.3594 3.59672C15.3952 3.58103 15.4395 3.56818 15.4576 3.56818C15.4758 3.56818 15.4907 3.55877 15.4907 3.54727C15.4907 3.53576 15.514 3.52635 15.5424 3.52635C15.5708 3.52635 15.5941 3.51798 15.5941 3.50775C15.5941 3.49754 15.6278 3.48277 15.669 3.47495C15.7103 3.46713 15.7591 3.45334 15.7776 3.44432C15.7961 3.43529 15.8485 3.41136 15.894 3.39113C15.9395 3.3709 15.991 3.34718 16.0084 3.33841C16.0259 3.32965 16.07 3.31584 16.1064 3.30775C16.1429 3.29965 16.178 3.28434 16.1845 3.27371C16.191 3.26309 16.2136 3.25441 16.2348 3.25441C16.256 3.25441 16.2996 3.24116 16.3318 3.22497C16.364 3.20876 16.416 3.18364 16.4472 3.16914C16.4785 3.15462 16.5041 3.1336 16.5041 3.12243C16.5041 3.09599 16.4396 3.04675 16.4038 3.04589C16.3885 3.04551 16.3466 3.03238 16.3108 3.01669C16.2529 2.99133 16.2025 2.97098 16.0078 2.89436C15.9793 2.88316 15.9297 2.86076 15.8975 2.84455C15.8653 2.82836 15.8216 2.81512 15.8005 2.81512C15.7793 2.81512 15.7563 2.8057 15.7492 2.7942C15.7422 2.78269 15.7221 2.77328 15.7046 2.77328C15.6871 2.77328 15.6388 2.75836 15.5972 2.74017C15.5557 2.72195 15.4912 2.69371 15.4538 2.67741C15.4165 2.66109 15.3722 2.64777 15.3556 2.64777C15.3389 2.64777 15.3253 2.63836 15.3253 2.62685C15.3253 2.61534 15.3069 2.60593 15.2846 2.60593C15.2622 2.60593 15.2087 2.59051 15.1657 2.57165C15.1226 2.5528 15.0641 2.52828 15.0357 2.51715C15.0073 2.50602 14.9561 2.48458 14.922 2.4695C14.8878 2.45442 14.8134 2.42561 14.7565 2.40549C14.6996 2.38537 14.6443 2.36106 14.6334 2.35146C14.6226 2.34186 14.6008 2.33399 14.5849 2.33399C14.5575 2.33399 14.4476 2.29052 14.369 2.24856C14.3493 2.23802 14.3211 2.2294 14.3066 2.2294C14.2844 2.2294 14.0999 2.15798 13.9292 2.08339C13.9065 2.07343 13.8413 2.04889 13.7845 2.02883C13.7276 2.00879 13.6722 1.98453 13.6614 1.97492C13.6506 1.96532 13.6287 1.95746 13.6128 1.95746C13.5855 1.95746 13.4756 1.91399 13.397 1.87203C13.3772 1.86148 13.3507 1.85286 13.338 1.85286C13.3254 1.85286 13.2857 1.84002 13.2498 1.82433C13.1913 1.79866 13.0702 1.74988 12.9572 1.70643C12.7784 1.63768 12.7251 1.61607 12.6938 1.59969C12.674 1.58937 12.6475 1.58092 12.6349 1.58092C12.6222 1.58092 12.5779 1.56584 12.5363 1.54741C12.4207 1.4961 12.3915 1.48432 12.2023 1.41291C12.1056 1.3764 12.0079 1.33827 11.9851 1.32816C11.9624 1.31804 11.8088 1.25765 11.6439 1.19393C11.4789 1.13021 11.3254 1.06997 11.3026 1.06003C11.2799 1.05012 11.1915 1.01612 11.1062 0.984494C11.0208 0.952865 10.9231 0.915253 10.889 0.900924C10.8549 0.886616 10.7246 0.835512 10.5994 0.787378C10.4743 0.739245 10.3533 0.692136 10.3306 0.68266C10.3078 0.673205 10.2194 0.639589 10.1341 0.60796C10.0488 0.576331 9.95107 0.538824 9.91695 0.524642C9.8566 0.499539 9.71102 0.441637 9.6274 0.409485C9.55557 0.381852 9.4023 0.321104 9.33786 0.294726C9.30373 0.280752 9.24324 0.257407 9.20342 0.242827C9.16361 0.228247 9.10171 0.203291 9.06587 0.187393C9.03003 0.171474 8.99034 0.158463 8.97768 0.158463C8.96502 0.158463 8.93851 0.150012 8.91876 0.139699C8.89901 0.129365 8.84097 0.104869 8.78979 0.0852478C8.7386 0.0656262 8.68084 0.041298 8.66144 0.0311943C8.61418 0.00659412 8.47921 -0.00846722 8.42785 0.00512983ZM3.5366 1.90999C3.46266 1.93917 3.37424 1.97451 3.34012 1.9885C3.30599 2.00249 3.2455 2.02571 3.20569 2.04011C3.16587 2.0545 3.11469 2.07445 3.09194 2.08445C2.95722 2.14365 2.72444 2.2294 2.69844 2.2294C2.68167 2.2294 2.66796 2.23682 2.66796 2.24588C2.66796 2.25494 2.60746 2.28084 2.53353 2.30341C2.45959 2.32598 2.39909 2.35152 2.39909 2.36014C2.39909 2.36876 2.38282 2.37589 2.3629 2.37595C2.34298 2.37604 2.30005 2.39016 2.26748 2.40733C2.23488 2.42453 2.19521 2.43858 2.17929 2.43858C2.16338 2.43858 2.13418 2.44754 2.11443 2.4585C2.09468 2.46944 2.0413 2.49375 1.9958 2.51253C1.9503 2.53131 1.8825 2.55999 1.84515 2.57629C1.8078 2.59261 1.76346 2.60593 1.74664 2.60593C1.72981 2.60593 1.69986 2.61488 1.68011 2.62585C1.66036 2.63679 1.60698 2.66143 1.56148 2.68061C1.51598 2.69979 1.44943 2.72849 1.41358 2.74439C1.37774 2.76027 1.33408 2.77328 1.31657 2.77328C1.29905 2.77328 1.27897 2.78269 1.27193 2.7942C1.2649 2.8057 1.23644 2.81512 1.20867 2.81512C1.18089 2.81512 1.15818 2.82411 1.15818 2.83509C1.15818 2.84608 1.12551 2.86126 1.08557 2.86884C1.04563 2.87641 1.00785 2.89097 1.00162 2.90115C0.995397 2.91136 0.971323 2.91971 0.94816 2.91971C0.924996 2.91971 0.881336 2.93299 0.851141 2.9492C0.758796 2.99884 0.646722 3.04518 0.617333 3.04589C0.581574 3.04675 0.517046 3.09599 0.517046 3.12243C0.517046 3.1336 0.54263 3.15462 0.573921 3.16914C0.605192 3.18364 0.657145 3.20876 0.689347 3.22497C0.721548 3.24116 0.765208 3.25441 0.786365 3.25441C0.807523 3.25441 0.830149 3.26309 0.836622 3.27371C0.843116 3.28434 0.878276 3.29965 0.914738 3.30775C0.983629 3.32306 1.00111 3.33019 1.10966 3.38738C1.14555 3.4063 1.19442 3.42175 1.21824 3.42175C1.24209 3.42175 1.26159 3.43117 1.26159 3.44267C1.26159 3.45418 1.2799 3.46359 1.30225 3.46359C1.32461 3.46359 1.37348 3.47692 1.41083 3.49323C1.44818 3.50953 1.51598 3.53821 1.56148 3.55699C1.60698 3.57578 1.66036 3.60008 1.68011 3.61103C1.69986 3.62199 1.73477 3.63094 1.75767 3.63094C1.78058 3.63094 1.79932 3.63952 1.79932 3.65002C1.79932 3.66052 1.83655 3.67545 1.88205 3.68324C1.92755 3.69102 1.96478 3.70595 1.96478 3.71645C1.96478 3.72696 1.98105 3.73559 2.00097 3.73566C2.02089 3.73574 2.06382 3.74986 2.0964 3.76704C2.12899 3.78423 2.17319 3.79829 2.19463 3.79829C2.21608 3.79829 2.23364 3.8077 2.23364 3.81921C2.23364 3.83071 2.24851 3.84012 2.26671 3.84012C2.28489 3.84012 2.32911 3.85314 2.36495 3.86906C2.40079 3.88495 2.46269 3.90991 2.5025 3.92449C2.54232 3.93907 2.60281 3.9626 2.63694 3.97679C2.67106 3.99097 2.73156 4.0145 2.77137 4.02908C2.88466 4.07056 2.98332 4.11194 3.04708 4.14472C3.07928 4.16129 3.12294 4.17482 3.1441 4.17482C3.16525 4.17482 3.18767 4.18317 3.1939 4.19338C3.20012 4.20356 3.23791 4.21812 3.27785 4.2257C3.31778 4.23327 3.35046 4.24845 3.35046 4.25944C3.35046 4.27042 3.37317 4.27941 3.40094 4.27941C3.42872 4.27941 3.45674 4.2881 3.46322 4.29872C3.46971 4.30935 3.50487 4.32466 3.54133 4.33276C3.5778 4.34085 3.62189 4.35474 3.63932 4.36359C3.65676 4.37246 3.71291 4.39608 3.7641 4.41607C3.81528 4.43607 3.88649 4.4653 3.92233 4.48099C3.95818 4.49667 4.00239 4.50952 4.02057 4.50952C4.03877 4.50952 4.05364 4.51893 4.05364 4.53044C4.05364 4.54194 4.0712 4.55135 4.09265 4.55135C4.1141 4.55135 4.15829 4.56541 4.19089 4.58261C4.22346 4.59978 4.2664 4.6139 4.28631 4.61399C4.30623 4.61405 4.32251 4.62118 4.32251 4.6298C4.32251 4.63842 4.383 4.66396 4.45694 4.68653C4.53088 4.7091 4.59137 4.735 4.59137 4.74406C4.59137 4.75311 4.60624 4.76054 4.62444 4.76054C4.64262 4.76054 4.68684 4.77355 4.72268 4.78947C4.75852 4.80537 4.82042 4.83032 4.86024 4.8449C4.90005 4.85949 4.96054 4.88302 4.99467 4.8972C5.02879 4.91138 5.08929 4.93492 5.1291 4.9495C5.16891 4.96408 5.22941 4.98744 5.26353 5.00144C5.29766 5.01543 5.39538 5.0529 5.48069 5.08471C5.566 5.11651 5.66373 5.15433 5.69785 5.16874C5.73198 5.18314 5.79247 5.20686 5.83228 5.22144C5.8721 5.23602 5.93259 5.25936 5.96671 5.27334C6.00084 5.28731 6.07064 5.31511 6.12183 5.33511C6.17302 5.35511 6.23105 5.37992 6.2508 5.39025C6.27055 5.40056 6.29707 5.40901 6.30972 5.40901C6.32238 5.40901 6.36207 5.42186 6.39791 5.43755C6.4565 5.46322 6.57759 5.512 6.69058 5.55544C6.76241 5.58308 6.91568 5.64383 6.98013 5.6702C7.01425 5.68418 7.07474 5.70752 7.11456 5.7221C7.15437 5.73668 7.21486 5.7604 7.24899 5.7748C7.28311 5.78921 7.38084 5.82703 7.46615 5.85883C7.55146 5.89064 7.64918 5.92836 7.68331 5.94263C7.71743 5.95691 7.83842 6.00371 7.95217 6.04663C8.06592 6.08954 8.19156 6.13842 8.23138 6.15524C8.533 6.2827 8.49979 6.28343 8.82081 6.14217C8.84356 6.13217 8.95524 6.08901 9.06899 6.04628C9.18274 6.00356 9.30373 5.95691 9.33786 5.94263C9.37198 5.92836 9.4697 5.89064 9.55502 5.85883C9.64033 5.82703 9.73805 5.78921 9.77217 5.7748C9.8063 5.7604 9.86679 5.73668 9.90661 5.7221C9.98404 5.69376 10.082 5.65385 10.1917 5.606C10.229 5.58969 10.2715 5.57636 10.2861 5.57636C10.3006 5.57636 10.3607 5.55283 10.4197 5.52407C10.4786 5.4953 10.5403 5.47177 10.5568 5.47177C10.5732 5.47177 10.592 5.46309 10.5985 5.45246C10.605 5.44184 10.6401 5.42652 10.6766 5.41843C10.713 5.41033 10.7571 5.39644 10.7746 5.38759C10.792 5.37873 10.8481 5.35511 10.8993 5.33511C10.9505 5.31511 11.0203 5.28731 11.0545 5.27334C11.0886 5.25936 11.1491 5.23602 11.1889 5.22144C11.2287 5.20686 11.2906 5.1819 11.3264 5.166C11.3623 5.15009 11.402 5.13707 11.4146 5.13707C11.4273 5.13707 11.4538 5.1281 11.4735 5.11712C11.4933 5.10614 11.5537 5.07842 11.6077 5.05553C11.7057 5.01399 11.7188 4.99876 11.6901 4.95927C11.6718 4.93412 11.5521 4.8853 11.4733 4.87082C11.442 4.86509 11.4164 4.85204 11.4164 4.84185C11.4164 4.83164 11.4027 4.8233 11.3861 4.8233C11.3582 4.8233 11.2502 4.7815 11.1633 4.73707C11.1436 4.72697 11.1171 4.7187 11.1044 4.7187C11.0917 4.7187 11.0521 4.70546 11.0162 4.68929C10.9804 4.67312 10.9045 4.64327 10.8476 4.62294C10.7908 4.60263 10.7349 4.57949 10.7235 4.57156C10.7122 4.56361 10.6762 4.55069 10.6437 4.5428C10.6112 4.53493 10.546 4.51136 10.4989 4.49044C10.4518 4.46954 10.3435 4.42639 10.2582 4.39455C10.1729 4.36273 10.0752 4.32491 10.041 4.3105C10.0069 4.29611 9.94642 4.27239 9.90661 4.2578C9.86679 4.24323 9.8063 4.21986 9.77217 4.20586C9.73805 4.19187 9.64033 4.15441 9.55502 4.12259C9.4697 4.09079 9.37198 4.05274 9.33786 4.03803C9.30373 4.02333 9.16878 3.97193 9.03797 3.9238C8.78369 3.83023 8.67686 3.78726 8.61945 3.75545C8.5997 3.74449 8.5705 3.73553 8.55459 3.73553C8.53867 3.73553 8.499 3.72147 8.46641 3.70428C8.43383 3.68711 8.39088 3.67299 8.37098 3.6729C8.35108 3.67284 8.33479 3.66336 8.33479 3.65186C8.33479 3.64035 8.31386 3.63065 8.28825 3.63027C8.26265 3.62991 8.22364 3.61579 8.20157 3.59889C8.17949 3.58201 8.14447 3.56818 8.12373 3.56818C8.08588 3.56818 8.07242 3.56291 7.94533 3.4985C7.90744 3.4793 7.85912 3.46359 7.83797 3.46359C7.81681 3.46359 7.79439 3.45524 7.78817 3.44504C7.78194 3.43485 7.74415 3.42029 7.70422 3.41272C7.66428 3.40514 7.6316 3.38996 7.6316 3.37898C7.6316 3.36799 7.61405 3.359 7.5926 3.359C7.57115 3.359 7.52695 3.34494 7.49436 3.32775C7.46179 3.31057 7.41883 3.29645 7.39893 3.29637C7.37904 3.29631 7.36274 3.2879 7.36274 3.27769C7.36274 3.2675 7.33714 3.25407 7.30586 3.24788C7.21513 3.22989 7.09388 3.18284 7.09388 3.16561C7.09388 3.15693 7.07435 3.14981 7.05046 3.14981C7.0266 3.14981 6.97773 3.1368 6.94188 3.12092C6.90604 3.10503 6.84274 3.07679 6.80121 3.05817C6.75968 3.03953 6.71081 3.0243 6.69263 3.0243C6.67443 3.0243 6.65956 3.01489 6.65956 3.00338C6.65956 2.99188 6.64125 2.98246 6.6189 2.98246C6.59654 2.98246 6.54767 2.96914 6.51032 2.95282C6.47296 2.93653 6.40842 2.90829 6.36689 2.89007C6.32536 2.87187 6.27705 2.85695 6.25953 2.85695C6.24201 2.85695 6.22193 2.84754 6.2149 2.83604C6.20786 2.82453 6.18865 2.81512 6.17221 2.81512C6.15577 2.81512 6.09407 2.79158 6.03513 2.76282C5.97619 2.73406 5.91294 2.71052 5.8946 2.71052C5.87625 2.71052 5.85241 2.70264 5.84159 2.69301C5.83079 2.68337 5.73818 2.64488 5.6358 2.60746C5.53343 2.57003 5.42175 2.52755 5.38762 2.51305C5.3535 2.49856 5.293 2.47477 5.25319 2.46019C5.21338 2.44561 5.15148 2.42066 5.11564 2.40476C5.07979 2.38884 5.03744 2.37583 5.02153 2.37583C5.00561 2.37583 4.98375 2.36796 4.97295 2.35836C4.96213 2.34876 4.90677 2.32449 4.84989 2.30445C4.79302 2.28439 4.72787 2.25973 4.70512 2.24963C4.58364 2.19572 4.49942 2.16664 4.46476 2.16664C4.44339 2.16664 4.42592 2.15723 4.42592 2.14572C4.42592 2.13422 4.41105 2.1248 4.39285 2.1248C4.37467 2.1248 4.3258 2.10989 4.28427 2.09169C4.24274 2.07347 4.17819 2.04523 4.14084 2.02894C4.10349 2.01262 4.05462 1.99929 4.03226 1.99929C4.0099 1.99929 3.9916 1.98988 3.9916 1.97838C3.9916 1.96687 3.9776 1.95746 3.96047 1.95746C3.94335 1.95746 3.88111 1.93392 3.82217 1.90516C3.76323 1.8764 3.70509 1.85378 3.69301 1.85489C3.68091 1.856 3.61053 1.88079 3.5366 1.90999ZM0.0137948 3.91683C0.00620456 3.92449 0 6.19333 0 8.9587V13.9867L0.0568751 14.0071C0.0881667 14.0183 0.129903 14.0369 0.149654 14.0484C0.169405 14.0599 0.199663 14.0693 0.21687 14.0693C0.234098 14.0693 0.248182 14.0787 0.248182 14.0902C0.248182 14.1017 0.263052 14.1111 0.281253 14.1111C0.299432 14.1111 0.348303 14.126 0.389832 14.1442C0.431361 14.1625 0.495909 14.1907 0.533261 14.207C0.570612 14.2233 0.619484 14.2366 0.641841 14.2366C0.664198 14.2366 0.682501 14.2461 0.682501 14.2576C0.682501 14.2691 0.697371 14.2785 0.715571 14.2785C0.733751 14.2785 0.780285 14.2926 0.818981 14.3099C0.857656 14.3271 0.920984 14.3554 0.959659 14.3726C0.998354 14.3899 1.04489 14.404 1.06307 14.404C1.08127 14.404 1.09614 14.4134 1.09614 14.4249C1.09614 14.4364 1.11709 14.4461 1.14267 14.4465C1.16826 14.4468 1.20728 14.461 1.22935 14.4779C1.25144 14.4948 1.29098 14.5086 1.31725 14.5086C1.34351 14.5086 1.365 14.518 1.365 14.5295C1.365 14.541 1.38287 14.5504 1.40469 14.5504C1.42651 14.5504 1.47538 14.5661 1.51327 14.5853C1.63571 14.6474 1.65362 14.655 1.67699 14.655C1.68965 14.655 1.73165 14.6691 1.77035 14.6864C1.80902 14.7036 1.87235 14.7319 1.91102 14.7491C1.94972 14.7664 1.99439 14.7805 2.0103 14.7805C2.02622 14.7805 2.04808 14.7887 2.05888 14.7987C2.06969 14.8087 2.12506 14.8334 2.18194 14.8535C2.23881 14.8737 2.31792 14.9038 2.35773 14.9204C2.49105 14.9761 2.57973 15.0116 2.74035 15.0734C2.85161 15.1162 2.97202 15.1639 3.00921 15.1799C3.03196 15.1896 3.12503 15.2264 3.21603 15.2616C3.30703 15.2969 3.4001 15.3338 3.42285 15.3438C3.4456 15.3538 3.49678 15.3738 3.5366 15.3882C3.57641 15.4026 3.6369 15.4258 3.67103 15.4397C3.70515 15.4537 3.77496 15.4818 3.82614 15.5022C3.87733 15.5226 3.94713 15.5507 3.98126 15.5647C4.01538 15.5786 4.07588 15.602 4.11569 15.6166C4.18017 15.6402 4.21924 15.656 4.37421 15.7212C4.39696 15.7307 4.44815 15.7503 4.48796 15.7647C4.5643 15.7923 4.6603 15.8313 4.77304 15.8805C4.81039 15.8968 4.85461 15.9101 4.87128 15.9101C4.88795 15.9101 4.9016 15.9195 4.9016 15.931C4.9016 15.9425 4.92253 15.952 4.94813 15.9521C4.97374 15.9522 5.02133 15.9663 5.0539 15.9835C5.08649 16.0007 5.12604 16.0147 5.1418 16.0147C5.15756 16.0147 5.17046 16.0233 5.17046 16.0338C5.17046 16.0443 5.20769 16.0592 5.25319 16.067C5.29869 16.0748 5.33592 16.0897 5.33592 16.1002C5.33592 16.1107 5.35222 16.1194 5.37211 16.1194C5.39201 16.1195 5.43496 16.1336 5.46754 16.1508C5.50013 16.168 5.54433 16.1821 5.56578 16.1821C5.58722 16.1821 5.60478 16.1915 5.60478 16.203C5.60478 16.2145 5.61965 16.2239 5.63785 16.2239C5.66871 16.2239 5.77532 16.2653 5.85784 16.3093C5.8776 16.3199 5.90411 16.3285 5.91677 16.3285C5.94165 16.3285 6.05738 16.377 6.1457 16.4245C6.17589 16.4407 6.22011 16.454 6.24393 16.454C6.26778 16.454 6.28728 16.4634 6.28728 16.4749C6.28728 16.4864 6.30358 16.4959 6.32348 16.496C6.34337 16.496 6.38633 16.5102 6.4189 16.5273C6.4515 16.5445 6.49569 16.5586 6.51714 16.5586C6.53859 16.5586 6.55615 16.568 6.55615 16.5795C6.55615 16.591 6.57102 16.6004 6.58922 16.6004C6.6074 16.6004 6.65161 16.6133 6.68746 16.629C6.74605 16.6546 6.86714 16.7034 6.98013 16.7469C7.11131 16.7973 7.26818 16.8606 7.39376 16.9136C7.43955 16.9329 7.67865 17.0268 7.8074 17.0759C7.8529 17.0933 7.90874 17.1149 7.93149 17.124C8.01635 17.1579 8.04605 17.1636 8.07626 17.1519C8.10373 17.1412 8.10729 16.5628 8.10729 12.1201C8.10729 8.13186 8.10197 7.09522 8.08143 7.07503C8.06723 7.06106 7.94855 7.00918 7.81774 6.95971C7.68693 6.91025 7.56129 6.86181 7.53854 6.85206C7.43508 6.80767 7.26158 6.73761 7.1249 6.68505C7.00376 6.63846 6.89272 6.5943 6.85603 6.57815C6.83328 6.56813 6.74952 6.53556 6.6699 6.50579C6.59027 6.47601 6.4972 6.43915 6.46308 6.42388C6.42895 6.40863 6.3545 6.37957 6.29762 6.35932C6.24075 6.33907 6.18538 6.31466 6.17457 6.30506C6.16377 6.29546 6.1405 6.28753 6.12286 6.28747C6.10524 6.28738 6.06415 6.27326 6.03157 6.25609C5.99898 6.23889 5.96434 6.22484 5.95457 6.22484C5.94481 6.22484 5.88771 6.20283 5.82767 6.17595C5.70015 6.11882 5.5926 6.07853 5.52723 6.06339C5.50164 6.05747 5.48069 6.04429 5.48069 6.03412C5.48069 6.02398 5.46582 6.01565 5.44762 6.01565C5.41676 6.01565 5.31015 5.97425 5.22763 5.93022C5.20788 5.91968 5.18136 5.91106 5.1687 5.91106C5.15605 5.91106 5.11636 5.89805 5.08052 5.88213C5.04468 5.86623 4.98278 5.84128 4.94296 5.8267C4.82967 5.78521 4.73102 5.74384 4.66725 5.71106C4.63505 5.69449 4.59536 5.68096 4.57907 5.68096C4.56279 5.68096 4.53328 5.672 4.51352 5.66104C4.49377 5.6501 4.44039 5.62579 4.39489 5.60701C4.34939 5.58822 4.2816 5.55954 4.24425 5.54325C4.2069 5.52693 4.15802 5.51361 4.13567 5.51361C4.11331 5.51361 4.09501 5.50419 4.09501 5.49269C4.09501 5.48118 4.08136 5.47177 4.06469 5.47177C4.04802 5.47177 4.0038 5.45845 3.96645 5.44213C3.9291 5.42583 3.8613 5.39715 3.8158 5.37837C3.7703 5.35958 3.71692 5.33528 3.69717 5.32434C3.67742 5.31338 3.64822 5.30442 3.63231 5.30442C3.61639 5.30442 3.57672 5.29036 3.54412 5.27317C3.51155 5.256 3.46862 5.24188 3.4487 5.24179C3.42878 5.24173 3.41251 5.23225 3.41251 5.22075C3.41251 5.20924 3.39886 5.19983 3.38219 5.19983C3.36552 5.19983 3.31665 5.18441 3.27361 5.16554C3.17903 5.12413 3.16021 5.11662 2.93682 5.03114C2.84014 4.99414 2.74241 4.95674 2.71966 4.94801C2.69691 4.93929 2.64432 4.91707 2.60279 4.89864C2.56126 4.88022 2.51878 4.86513 2.50842 4.86513C2.49806 4.86513 2.44133 4.8416 2.38238 4.81284C2.32344 4.78407 2.26175 4.76054 2.2453 4.76054C2.22886 4.76054 2.20965 4.75113 2.20262 4.73962C2.19559 4.72812 2.1755 4.7187 2.15799 4.7187C2.12973 4.7187 2.0934 4.70483 1.93375 4.6331C1.911 4.62288 1.82724 4.59014 1.74762 4.56037C1.66799 4.53058 1.57492 4.4941 1.5408 4.47929C1.50667 4.46448 1.40895 4.42635 1.32364 4.39453C1.23833 4.36273 1.1406 4.32508 1.10648 4.3109C1.07235 4.29671 1.00255 4.26841 0.951365 4.24804C0.900178 4.22766 0.830376 4.19955 0.796251 4.18557C0.762126 4.1716 0.701632 4.14825 0.661819 4.13367C0.595141 4.10926 0.507078 4.07345 0.403296 4.0286C0.380546 4.01877 0.315398 3.99432 0.258523 3.97425C0.201648 3.95421 0.146262 3.92995 0.135466 3.92035C0.111972 3.89947 0.0331944 3.89719 0.0137948 3.91683ZM16.8624 3.95154C16.8262 3.96505 16.7898 3.98317 16.7814 3.99178C16.773 4.0004 16.7467 4.00777 16.723 4.00814C16.6993 4.0085 16.6618 4.02262 16.6398 4.03952C16.6177 4.0564 16.5781 4.07023 16.5519 4.07023C16.5256 4.07023 16.5041 4.07964 16.5041 4.09115C16.5041 4.10265 16.4809 4.11207 16.4524 4.11207C16.424 4.11207 16.4007 4.12064 16.4007 4.13114C16.4007 4.14164 16.3635 4.15658 16.318 4.16436C16.2725 4.17214 16.2353 4.18708 16.2353 4.19758C16.2353 4.20808 16.2216 4.21666 16.2049 4.21666C16.1883 4.21666 16.144 4.22998 16.1067 4.2463C16.0693 4.2626 16.0048 4.29084 15.9633 4.30906C15.9217 4.32725 15.8774 4.34217 15.8647 4.34217C15.8521 4.34217 15.8256 4.35079 15.8058 4.36133C15.7337 4.39978 15.6183 4.44676 15.5959 4.44676C15.5725 4.44676 15.5522 4.45565 15.4358 4.51699C15.3999 4.5359 15.3511 4.55135 15.3272 4.55135C15.3034 4.55135 15.2839 4.56077 15.2839 4.57227C15.2839 4.58378 15.2676 4.59325 15.2477 4.59332C15.2278 4.5934 15.1848 4.60752 15.1523 4.6247C15.1197 4.64189 15.0778 4.65624 15.0592 4.65662C15.0406 4.65697 15.0073 4.67109 14.9852 4.68799C14.9631 4.70488 14.9236 4.7187 14.8973 4.7187C14.8711 4.7187 14.8496 4.72812 14.8496 4.73962C14.8496 4.75113 14.8263 4.76054 14.7979 4.76054C14.7694 4.76054 14.7462 4.76985 14.7462 4.78121C14.7462 4.79259 14.7089 4.8079 14.6634 4.81526C14.6179 4.82263 14.5807 4.83685 14.5807 4.84689C14.5807 4.85693 14.5671 4.86513 14.5504 4.86513C14.5337 4.86513 14.4895 4.87846 14.4521 4.89477C14.3425 4.94262 14.2445 4.98253 14.1671 5.01087C14.1273 5.02545 14.0654 5.05041 14.0295 5.06631C13.9937 5.08223 13.9558 5.09524 13.9455 5.09524C13.9351 5.09524 13.8784 5.11877 13.8194 5.14753C13.7605 5.1763 13.6936 5.19983 13.6708 5.19983C13.648 5.19983 13.6293 5.20924 13.6293 5.22075C13.6293 5.23225 13.6156 5.24167 13.5987 5.24167C13.5819 5.24167 13.5307 5.25681 13.485 5.27532L13.4018 5.30896V6.14173C13.4018 6.59974 13.3962 6.98937 13.3893 7.00757C13.3824 7.02577 13.3591 7.04066 13.3376 7.04066C13.3161 7.04066 13.2984 7.04884 13.2984 7.05882C13.2984 7.06882 13.2286 7.08154 13.1432 7.08708C13.0028 7.09618 12.9725 7.10664 12.828 7.19598C12.6524 7.30453 12.5566 7.33398 12.3328 7.34821C12.2392 7.35415 12.175 7.36871 12.1596 7.38743C12.1462 7.40381 12.1061 7.41749 12.0705 7.41786C12.0349 7.41822 11.9877 7.43234 11.9657 7.44924C11.9436 7.46612 11.9087 7.47995 11.8881 7.47995C11.8527 7.47995 11.8507 7.43916 11.8507 6.71766C11.8507 6.24762 11.843 5.95055 11.8306 5.94281C11.8196 5.93593 11.7614 5.95045 11.7014 5.97513C11.6413 5.9998 11.5736 6.02745 11.5508 6.03659C11.5281 6.04573 11.4755 6.0683 11.4339 6.08673C11.3924 6.10516 11.3454 6.12024 11.3295 6.12024C11.3136 6.12024 11.2917 6.12811 11.2809 6.13771C11.2701 6.14731 11.2147 6.17173 11.1579 6.19197C11.101 6.21222 11.0265 6.24061 10.9924 6.25504C10.9583 6.2695 10.8978 6.29324 10.858 6.30782C10.8182 6.3224 10.7563 6.34736 10.7204 6.36326C10.6846 6.37917 10.6422 6.39219 10.6263 6.39219C10.6104 6.39219 10.5885 6.40036 10.5777 6.41036C10.5669 6.42034 10.5116 6.44503 10.4547 6.46519C10.3625 6.49791 10.3173 6.51579 10.1651 6.57976C10.1424 6.58932 10.0912 6.60892 10.0514 6.62332C10.0116 6.63771 9.95107 6.66091 9.91695 6.67488C9.88282 6.68885 9.81302 6.71697 9.76183 6.73734C9.71065 6.75772 9.64085 6.78583 9.60672 6.7998C9.5726 6.81378 9.5121 6.83712 9.47229 6.8517C9.43248 6.86628 9.37057 6.89124 9.33473 6.90714C9.29889 6.92306 9.2592 6.93607 9.24655 6.93607C9.23389 6.93607 9.20737 6.94469 9.18762 6.95523C9.12016 6.99123 9.00699 7.03652 8.96558 7.04411C8.92436 7.05166 8.9242 7.07024 8.91901 12.1101L8.9138 17.1686L8.97503 17.155C9.00871 17.1475 9.08314 17.1185 9.14043 17.0906C9.19772 17.0626 9.26324 17.0397 9.28605 17.0397C9.30886 17.0397 9.32752 17.0323 9.32752 17.0231C9.32752 17.014 9.38102 16.9888 9.44644 16.967C9.51183 16.9453 9.57466 16.921 9.58604 16.9132C9.59741 16.9053 9.66295 16.8795 9.73168 16.8558C9.85904 16.8119 9.91517 16.7897 10.0617 16.7257C10.1072 16.7058 10.1677 16.683 10.1962 16.6751C10.2246 16.6671 10.2665 16.6522 10.2892 16.6421C10.312 16.6319 10.405 16.5938 10.496 16.5575C10.587 16.5212 10.6894 16.4798 10.7235 16.4654C10.7577 16.4511 10.8182 16.4276 10.858 16.4132C10.8978 16.3988 10.949 16.3788 10.9717 16.3688C10.9945 16.3588 11.0875 16.3219 11.1785 16.2867C11.2695 16.2514 11.3626 16.2145 11.3854 16.2045C11.4081 16.1945 11.4593 16.1745 11.4991 16.1601C11.5389 16.1457 11.5994 16.1225 11.6335 16.1086C11.6677 16.0946 11.7375 16.0665 11.7887 16.0461C11.8909 16.0054 12.0038 15.9589 12.0679 15.9312C12.0906 15.9214 12.1558 15.8974 12.2126 15.8778C12.3347 15.8359 12.5251 15.758 12.6001 15.7194C12.6199 15.7092 12.6464 15.7009 12.6591 15.7009C12.6717 15.7009 12.7137 15.6868 12.7524 15.6696C12.7911 15.6523 12.8544 15.6241 12.8931 15.6068C12.9318 15.5895 12.9783 15.5754 12.9965 15.5754C13.0147 15.5754 13.0296 15.566 13.0296 15.5545C13.0296 15.543 13.0471 15.5336 13.0686 15.5336C13.09 15.5336 13.1342 15.5195 13.1668 15.5023C13.1994 15.4852 13.2423 15.471 13.2622 15.471C13.2821 15.4709 13.2984 15.4614 13.2984 15.4499C13.2984 15.4384 13.3133 15.429 13.3315 15.429C13.3497 15.429 13.3962 15.4149 13.4349 15.3976C13.4736 15.3804 13.5369 15.3521 13.5756 15.3349C13.6143 15.3176 13.6563 15.3035 13.6689 15.3035C13.6816 15.3035 13.7081 15.2949 13.7279 15.2843C13.7954 15.2483 13.9148 15.1989 13.9343 15.1989C13.9533 15.1989 14.0572 15.1539 14.1306 15.1139C14.1503 15.1031 14.1852 15.0943 14.2081 15.0943C14.2311 15.0943 14.2498 15.0853 14.2498 15.0743C14.2498 15.0633 14.2825 15.0482 14.3224 15.0406C14.3623 15.033 14.4001 15.0184 14.4064 15.0083C14.4126 14.9981 14.435 14.9897 14.4562 14.9897C14.4773 14.9897 14.521 14.9765 14.5532 14.9603C14.5854 14.9441 14.635 14.9217 14.6634 14.9105C14.6919 14.8993 14.757 14.8738 14.8082 14.8537C14.8594 14.8337 14.9199 14.8094 14.9426 14.7996C14.9654 14.7899 15.119 14.7292 15.2839 14.6647C15.4488 14.6002 15.6117 14.5355 15.6458 14.5207C15.6799 14.506 15.7404 14.4822 15.7803 14.4678C15.8201 14.4534 15.8713 14.4335 15.894 14.4235C15.9168 14.4135 16.0703 14.3528 16.2353 14.2886C16.4002 14.2243 16.5538 14.1639 16.5765 14.1544C16.5993 14.1448 16.6551 14.1229 16.7006 14.1055C16.8832 14.036 16.9702 13.9962 16.9847 13.9757C17.0028 13.9501 17.006 4.00467 16.9879 3.95689C16.9734 3.91859 16.9529 3.91773 16.8624 3.95154ZM6.39388 12.1396C6.43193 12.2172 6.47472 12.2932 6.48893 12.3084C6.50316 12.3236 6.51478 12.3495 6.51478 12.3659C6.51478 12.3824 6.52175 12.3959 6.53029 12.396C6.53884 12.3961 6.55582 12.4172 6.56804 12.443C6.63128 12.5765 6.73383 12.7627 6.74745 12.7688C6.756 12.7727 6.76297 12.7885 6.76297 12.804C6.76297 12.8194 6.77461 12.8446 6.78882 12.8598C6.80305 12.8751 6.84255 12.944 6.87661 13.013C6.91068 13.082 6.94397 13.1431 6.95061 13.1489C6.98271 13.1767 7.03183 13.309 7.03183 13.3676C7.03183 13.4622 6.99913 13.4836 6.85442 13.4836C6.77473 13.4836 6.71825 13.4938 6.70431 13.5108C6.68983 13.5285 6.68181 13.6997 6.68152 13.9972C6.68074 14.7829 6.6549 15.6241 6.63077 15.6502C6.61854 15.6634 6.59443 15.6673 6.57718 15.6588C6.55991 15.6503 6.48997 15.6272 6.42172 15.6073C6.35347 15.5875 6.28147 15.5628 6.26172 15.5524C6.24197 15.5421 6.21204 15.5336 6.19523 15.5336C6.17839 15.5336 6.12477 15.5206 6.07602 15.5046C6.02727 15.4887 5.94245 15.4629 5.88754 15.4473C5.83263 15.4317 5.77853 15.4077 5.76732 15.3941C5.7539 15.3777 5.7552 15.2132 5.77113 14.9127C5.78442 14.6617 5.79882 14.381 5.80312 14.2889C5.8074 14.1969 5.82165 13.9923 5.83478 13.8343C5.86308 13.4938 5.85925 13.4837 5.7005 13.4833C5.64215 13.4831 5.58154 13.4747 5.56578 13.4646C5.51295 13.4307 5.53266 13.2936 5.61113 13.1489C5.65169 13.0741 5.70639 12.9705 5.7327 12.9188C5.75901 12.867 5.78542 12.8199 5.79139 12.8142C5.79737 12.8084 5.82635 12.7567 5.85578 12.6991C5.94785 12.5192 5.98653 12.451 6.01325 12.4214C6.02748 12.4057 6.0391 12.3802 6.0391 12.3647C6.0391 12.3492 6.04607 12.3334 6.05461 12.3296C6.06315 12.3257 6.08851 12.2849 6.11097 12.2389C6.18449 12.0884 6.25076 11.9984 6.28805 11.9984C6.31266 11.9984 6.3474 12.0447 6.39388 12.1396Z" fill="#FF5C00"/>
</svg>
