<svg width="21" height="21" viewBox="0 0 21 21" fill="none" xmlns="http://www.w3.org/2000/svg">
<path fill-rule="evenodd" clip-rule="evenodd" d="M8.925 1.06817C7.55946 1.24927 6.63184 1.52667 5.5252 2.08479C3.53848 3.08683 2.02288 4.62316 1.04259 6.62882C0.535547 7.66625 0.250252 8.65285 0.0885 9.9282C-0.0361843 10.9116 -0.0104002 11.625 0.191677 12.7795C0.843408 16.5035 3.68003 19.6046 7.35958 20.616C8.99599 21.0657 10.5592 21.1 12.2405 20.7229C13.9929 20.3299 15.7266 19.3801 17.0207 18.1041C18.6272 16.52 19.6141 14.5004 19.9275 12.1557C20.2163 9.99391 19.6565 7.55102 18.4301 5.62189C17.3909 3.98719 15.7663 2.59892 14.014 1.84825C13.032 1.4276 12.2072 1.21001 11.047 1.06557C10.2829 0.970454 9.65595 0.971228 8.925 1.06817ZM10.3903 3.67848C10.5071 3.76312 10.5979 3.87827 10.6713 4.03489L10.7798 4.2663L10.7915 7.23481L10.8032 10.2033L10.9398 10.3713C11.015 10.4636 11.1105 10.6113 11.1522 10.6993C11.2276 10.8588 11.3863 10.9716 12.0425 11.3322C12.1545 11.3938 12.457 11.5661 12.7146 11.7152C12.9722 11.8642 13.3806 12.1005 13.6221 12.2403C13.8636 12.3801 14.255 12.609 14.4919 12.749C14.7288 12.889 14.9353 13.0036 14.9507 13.0036C15.0314 13.0036 15.3217 13.373 15.3811 13.5513C15.535 14.0133 15.2911 14.3942 14.7824 14.4865C14.5484 14.529 14.3319 14.4494 13.7126 14.0931C13.3989 13.9126 13.0782 13.73 12.9997 13.6873C12.9213 13.6446 12.8202 13.5878 12.775 13.5612C12.7298 13.5345 12.4916 13.3958 12.2455 13.253C11.9994 13.1101 11.5492 12.8485 11.245 12.6717L10.6918 12.3502L10.4914 12.4401C10.066 12.6308 9.4408 12.5305 9.10052 12.2168C8.57628 11.7336 8.5443 10.9028 9.02915 10.3635L9.20899 10.1635L9.22043 7.21489L9.23192 4.2663L9.32512 4.06414C9.49351 3.69888 9.68805 3.55387 10.0099 3.55363C10.1773 3.55351 10.2512 3.57778 10.3903 3.67848Z" fill="white"/>
</svg>
