<svg width="27" height="27" viewBox="0 0 27 27" fill="none" xmlns="http://www.w3.org/2000/svg">
<rect x="0.5" y="0.5" width="26" height="26" stroke="#9D9D9D"/>
<mask id="path-2-inside-1_160_2" fill="white">
<path fill-rule="evenodd" clip-rule="evenodd" d="M13.9612 14.1941L20.2499 20.25L20.9436 19.5297L14.682 13.5L20.9436 7.4703L20.2499 6.74998L13.9612 12.8058L6.92435 6.02966L6.23071 6.74998L13.2403 13.5L6.23071 20.25L6.92435 20.9703L13.9612 14.1941Z"/>
</mask>
<path fill-rule="evenodd" clip-rule="evenodd" d="M13.9612 14.1941L20.2499 20.25L20.9436 19.5297L14.682 13.5L20.9436 7.4703L20.2499 6.74998L13.9612 12.8058L6.92435 6.02966L6.23071 6.74998L13.2403 13.5L6.23071 20.25L6.92435 20.9703L13.9612 14.1941Z" fill="#9D9D9D"/>
<path d="M20.2499 20.25L18.169 22.4109L20.33 24.4919L22.4109 22.3309L20.2499 20.25ZM13.9612 14.1941L16.0421 12.0332L13.9612 10.0293L11.8802 12.0332L13.9612 14.1941ZM20.9436 19.5297L23.1045 21.6106L25.1855 19.4496L23.0245 17.3687L20.9436 19.5297ZM14.682 13.5L12.6011 11.339L10.357 13.5L12.6011 15.6609L14.682 13.5ZM20.9436 7.4703L23.0245 9.63126L25.1855 7.55034L23.1045 5.38938L20.9436 7.4703ZM20.2499 6.74998L22.4109 4.66906L20.33 2.5081L18.169 4.58902L20.2499 6.74998ZM13.9612 12.8058L11.8802 14.9668L13.9612 16.9707L16.0421 14.9668L13.9612 12.8058ZM6.92435 6.02966L9.00528 3.8687L6.84432 1.78778L4.76339 3.94874L6.92435 6.02966ZM6.23071 6.74998L4.06975 4.66906L1.98883 6.83002L4.14979 8.91094L6.23071 6.74998ZM13.2403 13.5L15.3213 15.6609L17.5653 13.5L15.3213 11.339L13.2403 13.5ZM6.23071 20.25L4.14979 18.089L1.98883 20.1699L4.06975 22.3309L6.23071 20.25ZM6.92435 20.9703L4.76339 23.0512L6.84432 25.2122L9.00528 23.1313L6.92435 20.9703ZM22.3309 18.089L16.0421 12.0332L11.8802 16.3551L18.169 22.4109L22.3309 18.089ZM18.7826 17.4487L18.089 18.1691L22.4109 22.3309L23.1045 21.6106L18.7826 17.4487ZM12.6011 15.6609L18.8627 21.6906L23.0245 17.3687L16.7629 11.339L12.6011 15.6609ZM16.7629 15.6609L23.0245 9.63126L18.8627 5.30934L12.6011 11.339L16.7629 15.6609ZM23.1045 5.38938L22.4109 4.66906L18.089 8.83091L18.7826 9.55123L23.1045 5.38938ZM18.169 4.58902L11.8802 10.6449L16.0421 14.9668L22.3309 8.91094L18.169 4.58902ZM4.84343 8.19062L11.8802 14.9668L16.0421 10.6449L9.00528 3.8687L4.84343 8.19062ZM8.39167 8.83091L9.08532 8.11059L4.76339 3.94874L4.06975 4.66906L8.39167 8.83091ZM15.3213 11.339L8.31164 4.58902L4.14979 8.91094L11.1594 15.6609L15.3213 11.339ZM11.1594 11.339L4.14979 18.089L8.31164 22.4109L15.3213 15.6609L11.1594 11.339ZM4.06975 22.3309L4.76339 23.0512L9.08531 18.8894L8.39167 18.1691L4.06975 22.3309ZM9.00528 23.1313L16.0421 16.3551L11.8802 12.0332L4.84343 18.8093L9.00528 23.1313Z" fill="#9D9D9D" mask="url(#path-2-inside-1_160_2)"/>
</svg>
