<svg width="17" height="17" viewBox="0 0 17 17" fill="none" xmlns="http://www.w3.org/2000/svg">
<circle cx="8.5" cy="8.5" r="7.5" fill="#FF5C00" stroke="#FF5C00" stroke-width="2"/>
<path d="M8.88391 12.9285C7.94891 12.9285 7.10741 12.733 6.35941 12.342C5.61991 11.9425 5.03766 11.39 4.61266 10.6845C4.18766 9.97898 3.97516 9.17998 3.97516 8.28748C3.97516 7.39498 4.18766 6.59598 4.61266 5.89048C5.03766 5.18498 5.61991 4.63673 6.35941 4.24573C7.10741 3.84623 7.94891 3.64648 8.88391 3.64648C9.69991 3.64648 10.4352 3.79098 11.0897 4.07998C11.7442 4.36898 12.2882 4.78548 12.7217 5.32948L11.1152 6.78298C10.5372 6.08598 9.83591 5.73748 9.01141 5.73748C8.52691 5.73748 8.09341 5.84373 7.71091 6.05623C7.33691 6.26873 7.04366 6.57048 6.83116 6.96148C6.62716 7.34398 6.52516 7.78598 6.52516 8.28748C6.52516 8.78898 6.62716 9.23523 6.83116 9.62623C7.04366 10.0087 7.33691 10.3062 7.71091 10.5187C8.09341 10.7312 8.52691 10.8375 9.01141 10.8375C9.83591 10.8375 10.5372 10.489 11.1152 9.79198L12.7217 11.2455C12.2882 11.7895 11.7442 12.206 11.0897 12.495C10.4352 12.784 9.69991 12.9285 8.88391 12.9285Z" fill="white"/>
</svg>
