<svg width="32" height="36" viewBox="0 0 32 36" fill="none" xmlns="http://www.w3.org/2000/svg">
<path fill-rule="evenodd" clip-rule="evenodd" d="M14.1273 1.39942V2.79882L14.0482 2.81103C14.0046 2.81774 13.8813 2.83449 13.7741 2.84826C11.7359 3.10993 9.59475 3.83331 7.79292 4.86896C3.64069 7.25557 0.837756 11.2678 0.156295 15.8004C0.0489505 16.5145 0.0182286 16.9025 0.00419539 17.7224C-0.0101789 18.5632 0.0104567 19.0179 0.0961906 19.7492C0.485709 23.0718 2.06042 26.2282 4.54035 28.657C5.34163 29.4419 6.16929 30.0969 7.15683 30.7279C7.56981 30.9917 7.60893 31.0117 7.65627 30.9825C7.68453 30.9651 8.51278 30.4703 9.49686 29.8831L11.286 28.8153L11.1779 28.7682C9.88318 28.2035 8.98236 27.6642 8.02077 26.8783C5.86984 25.1203 4.38364 22.6161 3.92116 19.9705C3.78689 19.2025 3.76148 18.8917 3.76114 18.0136C3.76082 17.1992 3.77802 16.9346 3.87099 16.3246C4.12469 14.6601 4.76563 13.0336 5.71621 11.642C7.36698 9.22539 9.86759 7.47579 12.7607 6.71325C13.2128 6.59407 14.0788 6.42605 14.1061 6.45219C14.1175 6.46312 14.1298 7.03349 14.1332 7.71966L14.1395 8.96726L17.8069 6.7752C19.824 5.56955 21.5103 4.56123 21.5542 4.53446L21.6341 4.4858L17.9355 2.27633C15.9013 1.06111 14.2123 0.0517882 14.1822 0.0334073L14.1273 0V1.39942ZM22.5509 6.08024C21.5493 6.67905 20.7298 7.1749 20.7298 7.1821C20.7298 7.18929 20.893 7.2661 21.0926 7.35277C22.0567 7.7714 22.979 8.32882 23.8482 9.01828C24.1882 9.28794 24.8919 9.94481 25.199 10.2791C26.5347 11.7332 27.4742 13.4775 27.9289 15.3475C28.3949 17.2636 28.3425 19.3258 27.7803 21.2007C26.8348 24.3536 24.5441 26.9872 21.4669 28.4593C20.4559 28.9429 19.3388 29.3034 18.2521 29.4966L17.8914 29.5607L17.8851 28.2926C17.8802 27.2943 17.8724 27.0269 17.8486 27.0358C17.7987 27.0544 10.439 31.4575 10.4036 31.49C10.3767 31.5147 11.0311 31.9145 14.119 33.76L17.8671 36L17.8734 34.5951L17.8796 33.1902L18.2754 33.1378C19.9248 32.9191 21.6014 32.4165 23.1417 31.6791C27.838 29.4305 31.0871 25.1383 31.8372 20.1918C32.0543 18.7605 32.0543 17.2444 31.8372 15.8121C31.5008 13.5927 30.6604 11.4856 29.363 9.60894C28.1609 7.87009 26.6524 6.426 24.8175 5.2574C24.5873 5.11077 24.3929 4.99096 24.3855 4.99115C24.3781 4.99131 23.5525 5.4814 22.5509 6.08024Z" fill="#FF5C00"/>
</svg>
