<svg width="33" height="32" viewBox="0 0 33 32" fill="none" xmlns="http://www.w3.org/2000/svg">
<path fill-rule="evenodd" clip-rule="evenodd" d="M16.36 0.00956133C16.3158 0.0207903 16.2625 0.0458215 16.2415 0.0651992C16.2206 0.084577 16.1781 0.100407 16.1472 0.100407C16.0941 0.100407 15.8808 0.181427 15.7282 0.25964C15.6899 0.27929 15.6384 0.295354 15.6138 0.295354C15.5716 0.295354 15.5224 0.314225 15.1696 0.466167C15.0889 0.500906 14.9977 0.52929 14.9668 0.52929C14.9359 0.52929 14.8935 0.543288 14.8725 0.560404C14.8515 0.57752 14.735 0.623996 14.6136 0.663648C14.4921 0.703339 14.3747 0.747709 14.3526 0.762291C14.3305 0.776873 14.2221 0.819489 14.1117 0.856997C14.0013 0.894543 13.8748 0.939342 13.8307 0.956537C13.7865 0.973731 13.6691 1.01865 13.5697 1.05627C13.4704 1.09394 13.3321 1.14868 13.2626 1.17792C13.193 1.20716 13.1108 1.2311 13.0799 1.2311C13.049 1.2311 13.0066 1.24576 12.9856 1.26366C12.9646 1.28155 12.8571 1.32705 12.7467 1.3648C12.6363 1.40254 12.4918 1.45545 12.4255 1.48235C12.3593 1.50929 12.2419 1.55354 12.1646 1.58072C12.0873 1.60789 11.9699 1.65211 11.9036 1.67893C11.8048 1.71898 11.4996 1.8297 11.1609 1.94839C10.4442 2.19956 10.1833 2.35965 10.3851 2.42457C10.4254 2.43751 10.5153 2.47256 10.5848 2.50243C10.6544 2.53229 10.7314 2.55674 10.756 2.55674C10.7806 2.55674 10.8321 2.5728 10.8704 2.59246C11.0285 2.67344 11.2372 2.75169 11.2951 2.75169C11.3291 2.75169 11.3681 2.76923 11.3817 2.79068C11.3954 2.81212 11.4343 2.82967 11.4683 2.82967C11.5262 2.82967 11.735 2.90792 11.893 2.9889C11.9314 3.00855 11.9828 3.02461 12.0074 3.02461C12.032 3.02461 12.109 3.04887 12.1786 3.07854C12.2482 3.10817 12.3683 3.15468 12.4456 3.18186C12.5229 3.20903 12.6403 3.25329 12.7066 3.28023C12.7728 3.30713 12.9173 3.36004 13.0277 3.39778C13.1381 3.43552 13.2456 3.48102 13.2666 3.49892C13.2876 3.51682 13.33 3.53148 13.3609 3.53148C13.414 3.53148 13.6273 3.6125 13.7799 3.69071C13.8183 3.71036 13.8697 3.72642 13.8943 3.72642C13.9189 3.72642 13.9959 3.75056 14.0655 3.78007C14.1351 3.80955 14.3907 3.90679 14.6336 3.99607C14.8765 4.08536 15.1066 4.17527 15.1449 4.19586C15.1833 4.21644 15.2347 4.23329 15.2593 4.23329C15.2839 4.23329 15.3609 4.25754 15.4305 4.28721C15.5001 4.31684 15.6202 4.36336 15.6975 4.39053C15.7748 4.41771 15.8922 4.46157 15.9585 4.488C16.0247 4.51444 16.1422 4.5583 16.2194 4.58548C16.2967 4.61265 16.4142 4.65644 16.4804 4.68276C16.5466 4.70911 16.6912 4.76077 16.8016 4.79758C16.912 4.83435 17.0655 4.89034 17.1428 4.92192C17.3304 4.99861 17.4105 5.03007 17.6246 5.11117C17.724 5.14884 17.8622 5.20358 17.9318 5.23282C18.0013 5.26206 18.0861 5.286 18.1201 5.286C18.1541 5.286 18.1931 5.30355 18.2067 5.32499C18.2204 5.34643 18.2756 5.36398 18.3295 5.36398C18.3834 5.36398 18.4275 5.38153 18.4275 5.40297C18.4275 5.42441 18.4592 5.44208 18.4978 5.44219C18.5364 5.44235 18.6198 5.46867 18.683 5.50068C18.7463 5.53273 18.8321 5.55893 18.8737 5.55893C18.9154 5.55893 18.9494 5.57491 18.9494 5.59449C18.9494 5.61406 19.0217 5.6419 19.11 5.6564C19.1984 5.6709 19.2706 5.69445 19.2706 5.70876C19.2706 5.73801 19.514 5.82667 19.6821 5.85868C19.7428 5.87022 19.7925 5.89525 19.7925 5.91424C19.7925 5.93326 19.8214 5.94882 19.8567 5.94882C19.9166 5.94882 20.1236 6.02598 20.2838 6.10805C20.3221 6.12771 20.3736 6.14377 20.3982 6.14377C20.4227 6.14377 20.5088 6.17157 20.5894 6.20549C20.67 6.23945 20.7953 6.29208 20.8678 6.32246C20.9403 6.35287 21.0352 6.37771 21.0786 6.37771C21.122 6.37771 21.1575 6.39307 21.1575 6.41182C21.1575 6.43057 21.2116 6.45642 21.2777 6.46929C21.3439 6.48212 21.4737 6.52817 21.5663 6.57164C21.6589 6.61507 21.7512 6.65063 21.7713 6.65063C21.7914 6.65063 21.8648 6.67531 21.9343 6.70545C22.0039 6.73559 22.1512 6.79123 22.2616 6.82912C22.372 6.86698 22.4804 6.91011 22.5025 6.92488C22.5245 6.9397 22.5956 6.96411 22.6604 6.9792C22.7251 6.99428 22.8505 7.04056 22.9389 7.08205C23.0273 7.12353 23.1162 7.15749 23.1363 7.15749C23.1564 7.15749 23.2298 7.18175 23.2993 7.21142C23.3689 7.24105 23.4891 7.28756 23.5664 7.31474C23.6436 7.34191 23.7611 7.38562 23.8273 7.41186C23.8936 7.4381 24.1104 7.51741 24.3091 7.58813C24.5078 7.65882 24.6876 7.73118 24.7085 7.74896C24.7295 7.76678 24.7846 7.78132 24.831 7.78132C24.8774 7.78132 24.9325 7.79618 24.9534 7.81431C24.9744 7.83244 25.1749 7.91366 25.399 7.99479C25.835 8.15266 26.0194 8.16089 26.2719 8.03366C26.3346 8.00212 26.4199 7.97627 26.4615 7.97627C26.5032 7.97627 26.5373 7.95873 26.5373 7.93728C26.5373 7.91584 26.5689 7.89818 26.6075 7.89806C26.6461 7.8979 26.7295 7.87159 26.7927 7.83958C26.856 7.80753 26.9313 7.78132 26.9601 7.78132C26.9889 7.78132 27.0637 7.75664 27.1262 7.72647C27.2399 7.67153 27.2839 7.65395 27.6212 7.52856C27.7206 7.49163 27.8332 7.44566 27.8716 7.4264C27.9099 7.40718 27.9614 7.39143 27.986 7.39143C28.0295 7.39143 28.2536 7.30386 28.3935 7.2322C28.4318 7.21255 28.4833 7.19648 28.5079 7.19648C28.5324 7.19648 28.6095 7.17254 28.6791 7.1433C28.7928 7.09546 29.0279 7.00454 29.2472 6.92356C29.4665 6.84258 29.7016 6.75165 29.8153 6.70381C29.8849 6.67457 29.9707 6.65063 30.006 6.65063C30.0413 6.65063 30.0702 6.63309 30.0702 6.61164C30.0702 6.5902 30.1154 6.57265 30.1706 6.57265C30.2258 6.57265 30.2709 6.55706 30.2709 6.53799C30.2709 6.51896 30.3364 6.49144 30.4164 6.47686C30.4964 6.46227 30.5912 6.43658 30.6272 6.41977C30.6631 6.40293 30.7647 6.35833 30.8531 6.32062C30.9414 6.28292 31.0414 6.23871 31.0752 6.22237C31.109 6.20604 31.1946 6.1803 31.2654 6.16521C31.3362 6.15012 31.4044 6.12158 31.4171 6.10178C31.4296 6.08197 31.4735 6.06579 31.5146 6.06579C31.5557 6.06579 31.6404 6.04111 31.7029 6.01093C31.7654 5.98071 31.8663 5.93389 31.927 5.90687C31.9877 5.87981 32.0374 5.84063 32.0374 5.81981C32.0374 5.77052 31.9121 5.67874 31.8427 5.67714C31.8129 5.67644 31.7316 5.65196 31.6621 5.62271C31.5497 5.57546 31.4519 5.53752 31.0739 5.3947C31.0187 5.37384 30.9224 5.33209 30.8599 5.30187C30.7973 5.27169 30.7126 5.24701 30.6715 5.24701C30.6305 5.24701 30.5857 5.22947 30.572 5.20802C30.5584 5.18658 30.5194 5.16903 30.4854 5.16903C30.4514 5.16903 30.3576 5.14123 30.277 5.10731C30.1964 5.07335 30.0711 5.02072 29.9986 4.99034C29.9261 4.95993 29.8402 4.9351 29.8079 4.9351C29.7755 4.9351 29.749 4.91755 29.749 4.89611C29.749 4.87466 29.7135 4.85712 29.6701 4.85712C29.6267 4.85712 29.5228 4.82838 29.4392 4.79321C29.3557 4.75808 29.2422 4.71239 29.187 4.69165C29.1318 4.6709 29.0324 4.63094 28.9662 4.60283C28.8999 4.57472 28.7554 4.52103 28.645 4.48352C28.5346 4.44601 28.4271 4.40071 28.4061 4.38281C28.3851 4.36491 28.3427 4.35025 28.3118 4.35025C28.2587 4.35025 28.0454 4.26923 27.8928 4.19102C27.8544 4.17137 27.7999 4.15531 27.7716 4.15531C27.7286 4.15531 27.3704 4.0222 27.0391 3.88316C26.9949 3.8646 26.8685 3.81887 26.7581 3.78148C26.6477 3.74413 26.5402 3.6989 26.5192 3.681C26.4982 3.66311 26.4558 3.64844 26.4249 3.64844C26.3718 3.64844 26.1585 3.56743 26.0059 3.48921C25.9675 3.46956 25.9161 3.4535 25.8915 3.4535C25.8669 3.4535 25.7899 3.42956 25.7203 3.40032C25.6066 3.35248 25.3715 3.26155 25.1522 3.18057C24.8051 3.05241 24.7016 3.01214 24.6409 2.98161C24.6025 2.96239 24.5511 2.94664 24.5265 2.94664C24.5019 2.94664 24.4158 2.91852 24.3352 2.88417C24.1107 2.78853 24.054 2.76658 23.6868 2.63347C23.4991 2.56544 23.3094 2.49436 23.2653 2.47553C23.2211 2.45666 22.923 2.34409 22.6028 2.22533C22.2827 2.10657 21.9846 1.99428 21.9404 1.97576C21.8962 1.95728 21.7246 1.89392 21.559 1.83497C21.3934 1.77602 21.2037 1.70591 21.1375 1.67921C21.0712 1.65254 20.8183 1.55729 20.5754 1.46757C20.3325 1.37786 20.0977 1.29005 20.0535 1.27239C20.0093 1.25477 19.8377 1.19211 19.6721 1.13316C19.5065 1.07421 19.3168 1.0043 19.2505 0.977864C19.1334 0.931076 18.8508 0.823154 18.6885 0.763227C18.5491 0.711722 18.2515 0.598497 18.1264 0.549331C18.0602 0.523286 17.9428 0.479774 17.8655 0.452598C17.7882 0.425423 17.668 0.378908 17.5985 0.349276C17.5289 0.319605 17.4518 0.295354 17.4273 0.295354C17.4027 0.295354 17.3512 0.279602 17.3129 0.26038C17.2745 0.24112 17.1619 0.195463 17.0625 0.158891C16.9632 0.122319 16.851 0.0769741 16.8134 0.0581422C16.7216 0.0122906 16.4596 -0.0157818 16.36 0.00956133ZM6.86516 3.55998C6.72163 3.61437 6.55 3.68022 6.48376 3.70631C6.41752 3.73239 6.30009 3.77567 6.2228 3.80249C6.14552 3.82932 6.04616 3.86651 6.002 3.88515C5.74048 3.99549 5.28862 4.15531 5.23816 4.15531C5.2056 4.15531 5.17898 4.16915 5.17898 4.18603C5.17898 4.20291 5.06155 4.25118 4.91802 4.29325C4.7745 4.33532 4.65707 4.38293 4.65707 4.39899C4.65707 4.41506 4.62547 4.42835 4.58681 4.42847C4.54815 4.42862 4.4648 4.45494 4.40157 4.48695C4.3383 4.519 4.2613 4.5452 4.23038 4.5452C4.19951 4.5452 4.14282 4.56189 4.10448 4.58232C4.06614 4.60271 3.96252 4.64802 3.8742 4.68303C3.78587 4.71804 3.65427 4.7715 3.58177 4.80187C3.50926 4.83228 3.42318 4.85712 3.39055 4.85712C3.35787 4.85712 3.29973 4.87381 3.26139 4.89424C3.22305 4.91463 3.11943 4.96056 3.03111 4.99631C2.94278 5.03206 2.81359 5.08556 2.74402 5.11519C2.67444 5.14478 2.58969 5.16903 2.55569 5.16903C2.52168 5.16903 2.4827 5.18658 2.46905 5.20802C2.4554 5.22947 2.40016 5.24701 2.34624 5.24701C2.29232 5.24701 2.24824 5.26378 2.24824 5.28425C2.24824 5.30472 2.18481 5.33302 2.10728 5.34714C2.02976 5.36125 1.95641 5.38839 1.94433 5.40738C1.93224 5.4264 1.88551 5.44196 1.84055 5.44196C1.79558 5.44196 1.71083 5.46672 1.65221 5.49693C1.47296 5.58946 1.2554 5.67582 1.19835 5.67714C1.12894 5.67874 1.00368 5.77052 1.00368 5.81981C1.00368 5.84063 1.05334 5.87981 1.11408 5.90687C1.17479 5.93389 1.27563 5.98071 1.33814 6.01093C1.40065 6.04111 1.4854 6.06579 1.52647 6.06579C1.56754 6.06579 1.61147 6.08197 1.62403 6.10178C1.63664 6.12158 1.70489 6.15012 1.77567 6.16521C1.9094 6.19375 1.94332 6.20705 2.15405 6.31365C2.22371 6.34889 2.31858 6.37771 2.36483 6.37771C2.41112 6.37771 2.44897 6.39525 2.44897 6.41669C2.44897 6.43814 2.4845 6.45568 2.5279 6.45568C2.5713 6.45568 2.66617 6.48052 2.73868 6.51093C2.81118 6.54131 2.94278 6.59476 3.03111 6.62977C3.11943 6.66478 3.22305 6.71009 3.26139 6.73048C3.29973 6.75091 3.3675 6.7676 3.41194 6.7676C3.45643 6.7676 3.4928 6.78359 3.4928 6.80316C3.4928 6.82273 3.56506 6.85057 3.65339 6.86507C3.74171 6.87958 3.81398 6.90742 3.81398 6.92699C3.81398 6.94656 3.84557 6.96266 3.88423 6.96278C3.9229 6.96294 4.00624 6.98925 4.06947 7.02126C4.13275 7.05331 4.21854 7.07951 4.26017 7.07951C4.3018 7.07951 4.33589 7.09706 4.33589 7.1185C4.33589 7.13995 4.36476 7.15749 4.40008 7.15749C4.43537 7.15749 4.52121 7.18175 4.59078 7.21142C4.66036 7.24105 4.78052 7.28756 4.8578 7.31474C4.93509 7.34191 5.05252 7.38578 5.11876 7.41221C5.185 7.43865 5.30243 7.48251 5.37971 7.50969C5.59964 7.587 5.79114 7.66412 5.91492 7.72522C5.97743 7.7561 6.06218 7.78132 6.10325 7.78132C6.14432 7.78132 6.18784 7.79688 6.19992 7.81591C6.212 7.8349 6.28535 7.86203 6.36288 7.87615C6.4404 7.89026 6.50383 7.91857 6.50383 7.93904C6.50383 7.95951 6.54792 7.97627 6.60183 7.97627C6.65575 7.97627 6.71015 7.99245 6.72272 8.01226C6.73532 8.03207 6.80357 8.06061 6.87435 8.0757C6.94513 8.09078 7.03073 8.11667 7.06457 8.13317C7.09841 8.1497 7.20741 8.19372 7.30678 8.23099C7.40614 8.26826 7.54437 8.32273 7.61394 8.35197C7.68352 8.38122 7.76935 8.40516 7.80464 8.40516C7.83997 8.40516 7.86884 8.4227 7.86884 8.44415C7.86884 8.46559 7.90292 8.48313 7.94455 8.48313C7.98619 8.48313 8.07198 8.50934 8.13525 8.54138C8.19848 8.57339 8.28183 8.59971 8.32049 8.59987C8.35915 8.59999 8.39075 8.61328 8.39075 8.62934C8.39075 8.64541 8.50818 8.69302 8.65171 8.73508C8.79523 8.77715 8.91266 8.82542 8.91266 8.84231C8.91266 8.85919 8.94153 8.87303 8.97686 8.87303C9.01215 8.87303 9.09798 8.89728 9.16756 8.92695C9.23713 8.95658 9.35729 9.0031 9.43457 9.03027C9.51186 9.05745 9.62929 9.10131 9.69553 9.12775C9.76177 9.15418 9.8792 9.19804 9.95649 9.22522C10.0338 9.2524 10.1512 9.29595 10.2174 9.32203C10.2837 9.34811 10.4734 9.41794 10.639 9.47725C10.8046 9.53651 10.9943 9.60701 11.0605 9.63387C11.1268 9.66069 11.2442 9.70491 11.3215 9.73208C11.3988 9.75926 11.5162 9.80277 11.5824 9.82882C11.6487 9.85486 11.7842 9.90668 11.8835 9.94395C11.9829 9.98123 12.0956 10.0275 12.1339 10.0467C12.1722 10.0659 12.2237 10.0817 12.2483 10.0817C12.2729 10.0817 12.3499 10.1056 12.4195 10.1349C12.5332 10.1827 12.7683 10.2736 12.9876 10.3546C13.127 10.4061 13.4246 10.5194 13.5497 10.5685C13.6159 10.5946 13.7333 10.6381 13.8106 10.6653C13.8879 10.6924 14.0053 10.7366 14.0716 10.7635C14.1378 10.7903 14.3275 10.8608 14.4931 10.9201C14.6587 10.9794 14.8484 11.0497 14.9147 11.0763C14.9809 11.1029 15.2158 11.1901 15.4366 11.2701C15.6574 11.3501 15.9013 11.4412 15.9786 11.4726C16.5641 11.7101 16.4996 11.7115 17.1227 11.4482C17.1669 11.4296 17.3837 11.3491 17.6045 11.2695C17.8253 11.1899 18.0602 11.1029 18.1264 11.0763C18.1927 11.0497 18.3824 10.9794 18.548 10.9201C18.7136 10.8608 18.9033 10.7903 18.9695 10.7635C19.0358 10.7366 19.1532 10.6924 19.2305 10.6653C19.3808 10.6124 19.571 10.538 19.7839 10.4489C19.8564 10.4185 19.9388 10.3936 19.9671 10.3936C19.9953 10.3936 20.112 10.3498 20.2264 10.2961C20.3409 10.2425 20.4606 10.1987 20.4925 10.1987C20.5245 10.1987 20.5609 10.1825 20.5735 10.1627C20.5861 10.1429 20.6543 10.1143 20.7251 10.0992C20.7959 10.0842 20.8815 10.0583 20.9153 10.0418C20.9492 10.0252 21.0582 9.98123 21.1575 9.94395C21.2569 9.90668 21.3924 9.85486 21.4586 9.82882C21.5249 9.80277 21.6423 9.75926 21.7196 9.73208C21.7969 9.70491 21.917 9.65839 21.9866 9.62876C22.0562 9.59909 22.1332 9.57484 22.1578 9.57484C22.1824 9.57484 22.2338 9.55811 22.2722 9.53764C22.3105 9.51717 22.4277 9.46551 22.5326 9.42286C22.7229 9.34542 22.7482 9.31704 22.6926 9.24343C22.6571 9.19656 22.4247 9.10556 22.2716 9.07858C22.2109 9.0679 22.1612 9.04357 22.1612 9.02458C22.1612 9.00555 22.1347 8.99 22.1024 8.99C22.0482 8.99 21.8386 8.9121 21.67 8.82928C21.6316 8.81045 21.5802 8.79505 21.5556 8.79505C21.531 8.79505 21.454 8.77037 21.3844 8.74023C21.3148 8.71009 21.1676 8.65445 21.0572 8.61656C20.9468 8.5787 20.8384 8.53558 20.8163 8.5208C20.7942 8.50598 20.7245 8.48189 20.6613 8.46719C20.5981 8.45253 20.4717 8.40859 20.3803 8.3696C20.2889 8.33065 20.0786 8.25021 19.913 8.19087C19.7474 8.13157 19.5577 8.06107 19.4914 8.03421C19.4252 8.00739 19.3078 7.96317 19.2305 7.936C19.1532 7.90882 19.0358 7.86527 18.9695 7.83918C18.9033 7.8131 18.7136 7.74327 18.548 7.68397C18.3824 7.6247 18.1927 7.55378 18.1264 7.52637C18.0602 7.49896 17.7982 7.40317 17.5443 7.31345C17.0507 7.13905 16.8433 7.05897 16.7319 6.99966C16.6935 6.97923 16.6368 6.96255 16.606 6.96255C16.5751 6.96255 16.4981 6.93635 16.4348 6.9043C16.3716 6.87229 16.2882 6.84597 16.2495 6.84581C16.2109 6.8457 16.1793 6.82803 16.1793 6.80659C16.1793 6.78514 16.1387 6.76705 16.089 6.76635C16.0393 6.76569 15.9635 6.73937 15.9207 6.70787C15.8778 6.6764 15.8099 6.65063 15.7696 6.65063C15.6961 6.65063 15.67 6.64081 15.4233 6.52076C15.3497 6.48497 15.2559 6.45568 15.2149 6.45568C15.1738 6.45568 15.1303 6.44013 15.1182 6.4211C15.1061 6.40211 15.0328 6.37498 14.9552 6.36086C14.8777 6.34675 14.8143 6.31844 14.8143 6.29797C14.8143 6.2775 14.7802 6.26074 14.7386 6.26074C14.6969 6.26074 14.6111 6.23454 14.5479 6.20249C14.4846 6.17048 14.4013 6.14416 14.3626 6.144C14.324 6.14389 14.2924 6.12821 14.2924 6.10919C14.2924 6.0902 14.2427 6.06517 14.182 6.05363C14.0058 6.02009 13.7705 5.93241 13.7705 5.90028C13.7705 5.8841 13.7326 5.87084 13.6862 5.87084C13.6399 5.87084 13.545 5.84659 13.4754 5.817C13.4058 5.78737 13.283 5.73473 13.2023 5.70003C13.1217 5.66529 13.0269 5.63691 12.9916 5.63691C12.9562 5.63691 12.9274 5.61936 12.9274 5.59792C12.9274 5.57647 12.8918 5.55893 12.8484 5.55893C12.805 5.55893 12.7102 5.53409 12.6377 5.50368C12.5652 5.47331 12.4399 5.42067 12.3593 5.38671C12.2786 5.35279 12.1849 5.32499 12.1508 5.32499C12.1168 5.32499 12.0779 5.30745 12.0642 5.286C12.0506 5.26456 12.0133 5.24701 11.9813 5.24701C11.9494 5.24701 11.8297 5.20315 11.7153 5.14954C11.6008 5.09593 11.4781 5.05206 11.4425 5.05206C11.4068 5.05206 11.3606 5.03737 11.3396 5.01943C11.3186 5.00146 11.1388 4.92972 10.9401 4.85996C10.7414 4.79021 10.5246 4.71102 10.4583 4.684C10.3921 4.65698 10.2747 4.61265 10.1974 4.58548C10.1201 4.5583 9.99993 4.51179 9.93035 4.48216C9.86078 4.45249 9.77855 4.42823 9.74768 4.42823C9.71677 4.42823 9.67433 4.41357 9.65338 4.39568C9.63238 4.37778 9.52491 4.33255 9.4145 4.2952C9.3041 4.25781 9.17763 4.21184 9.13347 4.19301C8.89765 4.09253 8.73417 4.03834 8.66688 4.03834C8.62541 4.03834 8.59149 4.02079 8.59149 3.99935C8.59149 3.97791 8.56262 3.96036 8.52729 3.96036C8.492 3.96036 8.39713 3.93256 8.31652 3.89864C8.2359 3.86468 8.1106 3.81204 8.0381 3.78167C7.96559 3.75126 7.87072 3.72642 7.82732 3.72642C7.78393 3.72642 7.7484 3.70888 7.7484 3.68743C7.7484 3.66599 7.72122 3.64844 7.68797 3.64844C7.65473 3.64844 7.53393 3.60458 7.41951 3.55097C7.30509 3.49736 7.19224 3.45521 7.16879 3.45728C7.14531 3.45935 7.00868 3.50555 6.86516 3.55998ZM0.0267781 7.30047C0.0120441 7.31474 0 11.5436 0 16.6979V26.0693L0.110405 26.1073C0.171147 26.1283 0.252164 26.1629 0.290505 26.1843C0.328845 26.2058 0.38758 26.2233 0.420983 26.2233C0.454425 26.2233 0.481766 26.2409 0.481766 26.2623C0.481766 26.2838 0.510631 26.3013 0.545961 26.3013C0.58125 26.3013 0.676118 26.3291 0.756733 26.363C0.837349 26.397 0.962648 26.4496 1.03515 26.48C1.10766 26.5104 1.20253 26.5352 1.24593 26.5352C1.28932 26.5352 1.32486 26.5528 1.32486 26.5742C1.32486 26.5957 1.35372 26.6132 1.38905 26.6132C1.42434 26.6132 1.51467 26.6395 1.58979 26.6717C1.66486 26.7039 1.78779 26.7565 1.86287 26.7887C1.93798 26.8208 2.02831 26.8472 2.0636 26.8472C2.09893 26.8472 2.1278 26.8647 2.1278 26.8861C2.1278 26.9076 2.16847 26.9257 2.21813 26.9264C2.26779 26.927 2.34355 26.9534 2.38639 26.9849C2.42926 27.0163 2.50602 27.0421 2.55701 27.0421C2.608 27.0421 2.64971 27.0597 2.64971 27.0811C2.64971 27.1025 2.6844 27.1201 2.72675 27.1201C2.76911 27.1201 2.86398 27.1494 2.93753 27.1852C3.1752 27.3008 3.20996 27.315 3.25533 27.315C3.2799 27.315 3.36144 27.3413 3.43655 27.3735C3.51163 27.4057 3.63456 27.4583 3.70963 27.4905C3.78475 27.5226 3.87147 27.549 3.90234 27.549C3.93325 27.549 3.97569 27.5642 3.99665 27.5829C4.01764 27.6014 4.12512 27.6475 4.23552 27.685C4.34593 27.7227 4.49949 27.7788 4.57677 27.8098C4.83556 27.9136 5.00771 27.9797 5.31949 28.0948C5.53549 28.1746 5.76922 28.2635 5.84141 28.2933C5.88557 28.3115 6.06623 28.3801 6.24288 28.4457C6.41953 28.5113 6.60019 28.5803 6.64435 28.5989C6.68851 28.6176 6.78788 28.6547 6.86516 28.6816C6.94244 28.7084 7.05987 28.7516 7.12611 28.7777C7.19236 28.8037 7.32785 28.8561 7.42722 28.8941C7.52658 28.9321 7.66208 28.9845 7.72832 29.0105C7.79456 29.0366 7.91199 29.0801 7.98928 29.1073C8.11446 29.1513 8.19029 29.1808 8.49112 29.3022C8.53528 29.32 8.63464 29.3566 8.71193 29.3834C8.86011 29.4348 9.04647 29.5075 9.26531 29.5991C9.33782 29.6296 9.42365 29.6544 9.45601 29.6544C9.48837 29.6544 9.51487 29.6719 9.51487 29.6934C9.51487 29.7148 9.5555 29.7325 9.6052 29.7326C9.6549 29.7328 9.74728 29.7591 9.81051 29.7911C9.87378 29.8231 9.95055 29.8493 9.98114 29.8493C10.0117 29.8493 10.0368 29.8653 10.0368 29.8849C10.0368 29.9045 10.109 29.9323 10.1974 29.9468C10.2857 29.9613 10.358 29.9892 10.358 30.0087C10.358 30.0283 10.3896 30.0444 10.4282 30.0445C10.4668 30.0447 10.5502 30.071 10.6135 30.103C10.6767 30.1351 10.7625 30.1613 10.8042 30.1613C10.8458 30.1613 10.8799 30.1788 10.8799 30.2002C10.8799 30.2217 10.9087 30.2392 10.9441 30.2392C11.004 30.2392 11.2109 30.3164 11.3711 30.3985C11.4095 30.4181 11.4609 30.4342 11.4855 30.4342C11.5338 30.4342 11.7585 30.5246 11.9299 30.6131C11.9885 30.6434 12.0743 30.6681 12.1206 30.6681C12.1669 30.6681 12.2047 30.6857 12.2047 30.7071C12.2047 30.7286 12.2364 30.7462 12.275 30.7463C12.3136 30.7465 12.397 30.7728 12.4602 30.8048C12.5235 30.8369 12.6093 30.8631 12.6509 30.8631C12.6926 30.8631 12.7266 30.8806 12.7266 30.9021C12.7266 30.9235 12.7555 30.941 12.7908 30.941C12.8261 30.941 12.912 30.965 12.9815 30.9942C13.0953 31.0421 13.3303 31.133 13.5497 31.214C13.8043 31.308 14.1088 31.4259 14.3526 31.5247C14.4415 31.5608 14.9056 31.7357 15.1555 31.8273C15.2439 31.8596 15.3523 31.9 15.3964 31.9169C15.5611 31.9801 15.6188 31.9907 15.6775 31.9689C15.7308 31.949 15.7377 30.8709 15.7377 22.5904C15.7377 15.1567 15.7274 13.2246 15.6875 13.1869C15.6599 13.1609 15.4295 13.0642 15.1756 12.972C14.9217 12.8798 14.6778 12.7895 14.6336 12.7713C14.4328 12.6886 14.096 12.558 13.8307 12.4601C13.5955 12.3732 13.38 12.2909 13.3088 12.2608C13.2646 12.2421 13.102 12.1814 12.9474 12.126C12.7929 12.0704 12.6122 12.0017 12.546 11.9733C12.4797 11.9449 12.3352 11.8907 12.2248 11.853C12.1144 11.8152 12.0069 11.7697 11.9859 11.7518C11.965 11.7339 11.9198 11.7191 11.8856 11.719C11.8514 11.7189 11.7716 11.6925 11.7083 11.6605C11.6451 11.6285 11.5778 11.6023 11.5589 11.6023C11.5399 11.6023 11.4291 11.5613 11.3125 11.5112C11.065 11.4047 10.8562 11.3296 10.7293 11.3014C10.6797 11.2903 10.639 11.2658 10.639 11.2468C10.639 11.2279 10.6101 11.2124 10.5748 11.2124C10.5149 11.2124 10.3079 11.1352 10.1477 11.0532C10.1094 11.0335 10.0579 11.0174 10.0334 11.0174C10.0088 11.0174 9.93176 10.9932 9.86218 10.9635C9.79261 10.9339 9.67245 10.8874 9.59516 10.8602C9.37524 10.7829 9.18374 10.7058 9.05996 10.6447C8.99745 10.6138 8.92041 10.5886 8.88877 10.5886C8.85718 10.5886 8.79989 10.5719 8.76155 10.5514C8.72321 10.5311 8.61959 10.4857 8.53126 10.4507C8.44294 10.4157 8.31134 10.3623 8.23883 10.3319C8.16633 10.3015 8.07146 10.2766 8.02806 10.2766C7.98466 10.2766 7.94913 10.2591 7.94913 10.2377C7.94913 10.2162 7.92263 10.1987 7.89028 10.1987C7.85792 10.1987 7.77208 10.1738 7.69958 10.1434C7.62707 10.113 7.49547 10.0596 7.40714 10.0246C7.31882 9.98957 7.2152 9.94426 7.17686 9.92387C7.13852 9.90344 7.08183 9.88675 7.05096 9.88675C7.02005 9.88675 6.94304 9.86055 6.87977 9.8285C6.81654 9.79649 6.73319 9.77018 6.69453 9.77002C6.65587 9.7699 6.62428 9.75224 6.62428 9.7308C6.62428 9.70935 6.59778 9.69181 6.56542 9.69181C6.53306 9.69181 6.43819 9.66307 6.35465 9.6279C6.17105 9.5507 6.13452 9.53671 5.70089 9.3774C5.5132 9.30842 5.32351 9.23871 5.27935 9.22245C5.23519 9.20619 5.13309 9.16479 5.05248 9.13044C4.97186 9.09609 4.8894 9.06798 4.86928 9.06798C4.84917 9.06798 4.73905 9.02411 4.62463 8.9705C4.51021 8.91689 4.39045 8.87303 4.35853 8.87303C4.32662 8.87303 4.28932 8.85548 4.27567 8.83404C4.26202 8.8126 4.22304 8.79505 4.18903 8.79505C4.13419 8.79505 4.06365 8.7692 3.75376 8.63551C3.70959 8.61644 3.547 8.55542 3.39243 8.49994C3.23787 8.44442 3.0572 8.37642 2.99096 8.34882C2.92472 8.32121 2.73502 8.25013 2.56942 8.19083C2.40381 8.13157 2.21411 8.06139 2.14787 8.03495C2.08163 8.00852 1.94613 7.95576 1.84677 7.91779C1.7474 7.87981 1.61191 7.82741 1.54566 7.80137C1.47942 7.77532 1.36199 7.73181 1.28471 7.70463C1.15527 7.65913 0.984327 7.59238 0.782869 7.50879C0.738707 7.49046 0.612244 7.44489 0.501839 7.40749C0.391434 7.37014 0.28392 7.32491 0.262964 7.30702C0.217357 7.26811 0.0644361 7.26386 0.0267781 7.30047ZM32.7328 7.36515C32.6627 7.39034 32.5919 7.4241 32.5756 7.44017C32.5593 7.45623 32.5083 7.46995 32.4623 7.47066C32.4163 7.47132 32.3436 7.49764 32.3007 7.52914C32.2579 7.56061 32.1811 7.58638 32.1301 7.58638C32.0791 7.58638 32.0374 7.60392 32.0374 7.62537C32.0374 7.64681 31.9922 7.66436 31.937 7.66436C31.8818 7.66436 31.8367 7.68034 31.8367 7.69991C31.8367 7.71949 31.7644 7.74733 31.6761 7.76183C31.5878 7.77633 31.5155 7.80417 31.5155 7.82375C31.5155 7.84332 31.489 7.8593 31.4566 7.8593C31.4243 7.8593 31.3384 7.88414 31.2659 7.91455C31.1934 7.94492 31.0681 7.99756 30.9875 8.03152C30.9069 8.06544 30.8208 8.09324 30.7963 8.09324C30.7717 8.09324 30.7202 8.1093 30.6819 8.12895C30.542 8.20062 30.3179 8.28819 30.2743 8.28819C30.229 8.28819 30.1896 8.30476 29.9636 8.41908C29.894 8.45432 29.7991 8.48313 29.7529 8.48313C29.7066 8.48313 29.6687 8.50068 29.6687 8.52212C29.6687 8.54357 29.6371 8.56123 29.5985 8.56135C29.5598 8.5615 29.4765 8.58782 29.4132 8.61983C29.35 8.65188 29.2687 8.67863 29.2326 8.67933C29.1964 8.67999 29.1318 8.70631 29.089 8.73781C29.0461 8.76928 28.9693 8.79505 28.9183 8.79505C28.8673 8.79505 28.8256 8.8126 28.8256 8.83404C28.8256 8.85548 28.7805 8.87303 28.7253 8.87303C28.6701 8.87303 28.6249 8.89038 28.6249 8.91155C28.6249 8.93276 28.5526 8.9613 28.4643 8.97503C28.376 8.98875 28.3037 9.01526 28.3037 9.03398C28.3037 9.05269 28.2772 9.06798 28.2449 9.06798C28.2125 9.06798 28.1267 9.09281 28.0542 9.12322C27.8413 9.21239 27.6511 9.28678 27.5008 9.33961C27.4235 9.36679 27.3033 9.41331 27.2338 9.44294C27.1642 9.47261 27.0908 9.49686 27.0706 9.49686C27.0505 9.49686 26.9404 9.54072 26.826 9.59433C26.7116 9.64794 26.5817 9.69181 26.5375 9.69181C26.4932 9.69181 26.457 9.70935 26.457 9.7308C26.457 9.75224 26.4302 9.76979 26.3975 9.76979C26.3649 9.76979 26.2655 9.79801 26.1767 9.83252L26.0153 9.89522V11.4474C26.0153 12.3011 26.0044 13.0273 25.991 13.0612C25.9776 13.0951 25.9324 13.1229 25.8906 13.1229C25.8488 13.1229 25.8146 13.1381 25.8146 13.1567C25.8146 13.1754 25.679 13.1991 25.5132 13.2094C25.2408 13.2264 25.182 13.2458 24.9014 13.4124C24.5604 13.6147 24.3745 13.6696 23.9401 13.6961C23.7585 13.7072 23.6338 13.7343 23.6039 13.7692C23.5779 13.7997 23.5 13.8252 23.431 13.8259C23.3619 13.8266 23.2703 13.8529 23.2275 13.8844C23.1846 13.9159 23.1169 13.9417 23.0769 13.9417C23.0082 13.9417 23.0043 13.8656 23.0043 12.5208C23.0043 11.6447 22.9894 11.0911 22.9654 11.0766C22.9439 11.0638 22.831 11.0909 22.7144 11.1369C22.5979 11.1828 22.4663 11.2344 22.4222 11.2514C22.378 11.2685 22.2759 11.3105 22.1953 11.3449C22.1147 11.3792 22.0234 11.4073 21.9926 11.4073C21.9616 11.4073 21.9192 11.422 21.8983 11.4399C21.8773 11.4578 21.7698 11.5033 21.6594 11.541C21.549 11.5788 21.4044 11.6317 21.3382 11.6586C21.272 11.6855 21.1545 11.7298 21.0772 11.757C21 11.7841 20.8798 11.8307 20.8102 11.8603C20.7406 11.89 20.6584 11.9142 20.6276 11.9142C20.5966 11.9142 20.5542 11.9294 20.5332 11.9481C20.5123 11.9667 20.4048 12.0127 20.2944 12.0503C20.1154 12.1113 20.0276 12.1446 19.7323 12.2638C19.6882 12.2816 19.5888 12.3182 19.5115 12.345C19.4342 12.3718 19.3168 12.4151 19.2505 12.4411C19.1843 12.4672 19.0488 12.5196 18.9494 12.5575C18.8501 12.5955 18.7146 12.6479 18.6483 12.674C18.5821 12.7 18.4647 12.7435 18.3874 12.7707C18.3101 12.7979 18.1899 12.8444 18.1204 12.874C18.0508 12.9037 17.9737 12.9279 17.9492 12.9279C17.9246 12.9279 17.8731 12.944 17.8348 12.9636C17.7038 13.0307 17.4842 13.1152 17.4038 13.1293C17.3238 13.1434 17.3234 13.178 17.3134 22.5717L17.3033 32L17.4221 31.9747C17.4875 31.9607 17.632 31.9067 17.7432 31.8546C17.8544 31.8024 17.9816 31.7598 18.0259 31.7598C18.0701 31.7598 18.1064 31.7459 18.1064 31.7289C18.1064 31.7119 18.2102 31.6648 18.3372 31.6243C18.4641 31.5838 18.5861 31.5386 18.6082 31.5239C18.6303 31.5092 18.7575 31.4611 18.8909 31.417C19.1381 31.3351 19.2471 31.2939 19.5316 31.1746C19.6199 31.1375 19.7373 31.095 19.7925 31.0802C19.8477 31.0653 19.929 31.0376 19.9732 31.0186C20.0174 30.9997 20.198 30.9288 20.3747 30.8611C20.5513 30.7934 20.75 30.7162 20.8163 30.6894C20.8825 30.6627 21 30.6189 21.0772 30.5921C21.1545 30.5652 21.2539 30.528 21.298 30.5094C21.3422 30.4908 21.5229 30.4218 21.6995 30.3562C21.8762 30.2906 22.0568 30.2217 22.101 30.203C22.1452 30.1844 22.2445 30.1472 22.3218 30.1204C22.3991 30.0935 22.5165 30.0503 22.5828 30.0243C22.649 29.9982 22.7845 29.9458 22.8839 29.9078C23.0823 29.8319 23.3014 29.7454 23.4258 29.6938C23.47 29.6755 23.5965 29.6307 23.7069 29.5942C23.9437 29.516 24.3135 29.3709 24.4591 29.2989C24.4974 29.28 24.5489 29.2645 24.5735 29.2645C24.598 29.2645 24.6796 29.2382 24.7547 29.206C24.8298 29.1739 24.9527 29.1212 25.0278 29.0891C25.1029 29.0569 25.1932 29.0306 25.2285 29.0306C25.2638 29.0306 25.2927 29.013 25.2927 28.9916C25.2927 28.9701 25.3268 28.9526 25.3684 28.9526C25.41 28.9526 25.4958 28.9264 25.5591 28.8943C25.6223 28.8623 25.7057 28.836 25.7443 28.8359C25.783 28.8357 25.8146 28.8181 25.8146 28.7966C25.8146 28.7752 25.8435 28.7576 25.8788 28.7576C25.9141 28.7576 26.0044 28.7313 26.0795 28.6992C26.1546 28.667 26.2775 28.6144 26.3526 28.5822C26.4277 28.55 26.5093 28.5237 26.5338 28.5237C26.5584 28.5237 26.6099 28.5076 26.6482 28.488C26.7794 28.4208 27.0111 28.3288 27.049 28.3288C27.0858 28.3288 27.2876 28.2448 27.43 28.1703C27.4683 28.1502 27.5361 28.1338 27.5805 28.1338C27.625 28.1338 27.6614 28.117 27.6614 28.0966C27.6614 28.0761 27.7248 28.0478 27.8023 28.0337C27.8799 28.0196 27.9532 27.9924 27.9653 27.9734C27.9774 27.9544 28.0209 27.9389 28.062 27.9389C28.103 27.9389 28.1878 27.9142 28.2503 27.884C28.3128 27.8538 28.4091 27.812 28.4643 27.7912C28.5195 27.7703 28.646 27.7227 28.7453 27.6854C28.8447 27.6481 28.9621 27.6028 29.0063 27.5846C29.0505 27.5665 29.3486 27.4533 29.6687 27.3331C29.9889 27.213 30.3051 27.0922 30.3713 27.0647C30.4375 27.0373 30.555 26.9929 30.6323 26.966C30.7095 26.9392 30.8089 26.9021 30.8531 26.8835C30.8972 26.865 31.1953 26.7518 31.5155 26.632C31.8357 26.5122 32.1338 26.3997 32.1779 26.3819C32.2221 26.3642 32.3305 26.3232 32.4188 26.2909C32.7732 26.1612 32.9421 26.0871 32.9702 26.049C33.0054 26.0011 33.0117 7.46418 32.9766 7.37513C32.9484 7.30374 32.9085 7.30214 32.7328 7.36515ZM12.4116 22.6266C12.4855 22.7713 12.5686 22.9129 12.5962 22.9412C12.6238 22.9696 12.6463 23.0178 12.6463 23.0485C12.6463 23.0791 12.6599 23.1043 12.6765 23.1045C12.693 23.1046 12.726 23.1441 12.7497 23.1922C12.8725 23.441 13.0715 23.7881 13.098 23.7995C13.1146 23.8066 13.1281 23.8361 13.1281 23.8649C13.1281 23.8938 13.1507 23.9406 13.1783 23.969C13.2059 23.9974 13.2826 24.1259 13.3487 24.2545C13.4148 24.3831 13.4795 24.4971 13.4924 24.5078C13.5547 24.5596 13.65 24.8062 13.65 24.9154C13.65 25.0918 13.5865 25.1316 13.3056 25.1316C13.151 25.1316 13.0413 25.1507 13.0143 25.1824C12.9861 25.2153 12.9706 25.5344 12.97 26.0889C12.9685 27.5534 12.9183 29.1212 12.8715 29.17C12.8478 29.1946 12.801 29.2018 12.7675 29.186C12.7339 29.1702 12.5982 29.127 12.4657 29.09C12.3332 29.0531 12.1934 29.007 12.1551 28.9877C12.1168 28.9684 12.0587 28.9526 12.026 28.9526C11.9934 28.9526 11.8892 28.9283 11.7946 28.8986C11.7 28.8689 11.5354 28.8208 11.4288 28.7917C11.3222 28.7626 11.2171 28.718 11.1954 28.6925C11.1693 28.662 11.1719 28.3553 11.2028 27.7954C11.2286 27.3275 11.2565 26.8043 11.2649 26.6327C11.2732 26.4612 11.3009 26.0799 11.3263 25.7854C11.3813 25.1506 11.3738 25.1319 11.0657 25.131C10.9524 25.1307 10.8347 25.115 10.8042 25.0962C10.7016 25.0331 10.7399 24.7775 10.8922 24.5078C10.9709 24.3684 11.0771 24.1754 11.1282 24.0789C11.1792 23.9824 11.2305 23.8947 11.2421 23.884C11.2537 23.8732 11.31 23.7767 11.3671 23.6695C11.5458 23.3341 11.6209 23.207 11.6728 23.1519C11.7004 23.1226 11.723 23.075 11.723 23.0462C11.723 23.0173 11.7365 22.9879 11.7531 22.9807C11.7697 22.9736 11.8189 22.8975 11.8625 22.8118C12.0052 22.5311 12.1338 22.3634 12.2062 22.3634C12.254 22.3634 12.3214 22.4498 12.4116 22.6266Z" fill="#FF5C00"/>
</svg>
