<svg width="41" height="28" viewBox="0 0 41 28" fill="none" xmlns="http://www.w3.org/2000/svg">
<path fill-rule="evenodd" clip-rule="evenodd" d="M4.60124 0.0255365C2.46439 0.228811 0.65239 1.66094 0.149142 3.54427C-0.00891175 4.13574 9.42551e-05 3.50433 9.42551e-05 14.0003C9.42551e-05 22.4599 0.00512782 23.6778 0.0412063 23.9282C0.316121 25.8367 1.85754 27.3964 3.93172 27.8647C4.02151 27.8849 4.22353 27.9214 4.38066 27.9458C4.65244 27.988 5.41921 27.9905 20.148 27.998C30.7307 28.0034 35.7803 27.9977 36.1057 27.98C37.1243 27.9244 37.937 27.6803 38.7314 27.1914C39.8881 26.4794 40.6473 25.4322 40.9275 24.1623L40.9896 23.8805L40.9979 14.1737C41.0038 7.20962 40.9976 4.38988 40.976 4.19445C40.8235 2.81492 39.9906 1.5633 38.7094 0.78844C37.9885 0.352425 37.2207 0.102919 36.3545 0.0231841C36.0025 -0.00922984 4.94249 -0.00692693 4.60124 0.0255365ZM36.5216 2.3922C36.9956 2.5151 37.3943 2.73162 37.7264 3.0465C38.0361 3.34008 38.2191 3.6247 38.3565 4.02637L38.4309 4.24398L38.4396 5.62448L38.4482 7.00498H20.503H2.55769V5.69154C2.55769 4.24928 2.56387 4.17952 2.72459 3.81064C2.84923 3.52451 3.0078 3.30125 3.2489 3.07255C3.66657 2.6763 4.11097 2.45267 4.66205 2.36144C4.82073 2.3352 7.77018 2.32997 20.5833 2.33324L36.3098 2.33728L36.5216 2.3922ZM38.4392 17.7085L38.432 23.7567L38.3695 23.9424C38.0824 24.7948 37.4011 25.3913 36.4669 25.608L36.2282 25.6634H20.5017C5.99211 25.6634 4.76041 25.6603 4.58426 25.6226C3.6916 25.4319 2.98119 24.8579 2.68862 24.0911C2.55124 23.7311 2.55769 24.0491 2.55769 17.6388V11.6603H20.502H38.4463L38.4392 17.7085ZM5.12195 16.3342L5.12889 18.6557H8.96529H12.8017L12.8086 16.3342L12.8156 14.0127H8.96529H5.11502L5.12195 16.3342ZM20.5153 15.1642V16.3156H28.2017H35.8881V15.1642V14.0127H28.2017H20.5153V15.1642ZM30.7729 19.8319V20.9957H33.3305H35.8881V19.8319V18.6681H33.3305H30.7729V19.8319Z" fill="#FF5C00"/>
</svg>
