<svg width="23" height="15" viewBox="0 0 23 15" fill="none" xmlns="http://www.w3.org/2000/svg">
<path fill-rule="evenodd" clip-rule="evenodd" d="M0 5.40325V9.89884H7.85673H15.7135V6.15868V2.41853H17.6017H19.49V1.66309V0.907654H9.74501H0V5.40325ZM16.4651 2.84437L16.0689 2.84858V6.54405V10.2395H9.65376H3.23862L3.39282 10.3148C3.70909 10.4693 3.97161 10.6855 4.18184 10.9646C4.3588 11.1996 4.51007 11.534 4.56235 11.8059L4.58015 11.8985H10.3381H16.0961L16.1292 11.7985C16.1828 11.6364 16.3081 11.3676 16.4085 11.199C16.6715 10.7574 17.0292 10.4053 17.4092 10.2138C17.6803 10.0772 17.85 10.0306 18.209 9.99436C18.4711 9.9679 18.6259 9.97333 18.8538 10.017C19.7017 10.1797 20.4417 10.8941 20.6735 11.7739L20.6895 11.8345L21.2783 11.8443C21.6021 11.8496 22.1176 11.8541 22.4238 11.8541L22.9805 11.8541L22.9902 11.5541C22.9956 11.3892 22.9999 11.1702 23 11.0676L23 10.881L22.7979 10.8708C22.6867 10.8653 22.5901 10.8572 22.5831 10.8529C22.5762 10.8486 22.5705 10.2766 22.5705 9.58173C22.5705 8.88688 22.5662 8.2677 22.561 8.20576C22.5522 8.10167 22.5485 8.09209 22.5129 8.07923C22.4473 8.05559 21.5171 7.62388 21.2024 7.47103C20.9317 7.33955 20.8967 7.31812 20.8208 7.23773C20.686 7.09497 20.6198 6.94181 20.5201 6.54148C20.4913 6.42615 20.4609 6.31352 20.4524 6.29121C20.4439 6.26889 20.4043 6.13328 20.3644 5.98988C20.3246 5.84647 20.2305 5.53915 20.1554 5.30697C19.9499 4.67163 19.8668 4.39686 19.8096 4.16331C19.7076 3.7466 19.6618 3.37992 19.6702 3.04658L19.6751 2.85255L19.3432 2.84291C19.0342 2.83394 17.3699 2.83479 16.4651 2.84437ZM19.4086 4.56077L19.4826 4.56976L19.5684 4.88025C19.6156 5.05102 19.7479 5.5085 19.8624 5.8969C19.9769 6.28529 20.1091 6.74304 20.1561 6.91412L20.2416 7.22518L19.951 7.23429C19.4411 7.25026 17.671 7.24884 17.6609 7.23246C17.6473 7.21052 17.6465 4.81738 17.66 4.67373L17.6715 4.55153L18.503 4.55166C18.9603 4.55172 19.3678 4.55582 19.4086 4.56077ZM22.4751 10.0038C22.4897 10.0275 22.4913 10.9013 22.4767 10.9159C22.4699 10.9227 22.1134 10.9283 21.6844 10.9283H20.9044L20.9005 10.4767C20.8983 10.2283 20.8998 10.0167 20.9037 10.0064C20.9133 9.98132 22.4596 9.97883 22.4751 10.0038ZM0.0444301 11.069V11.8985H0.192249H0.340068L0.349014 11.8578C0.406713 11.5949 0.454446 11.4591 0.564411 11.245C0.768212 10.8482 1.12413 10.5063 1.54051 10.3073L1.68094 10.2401L0.862685 10.2398L0.0444301 10.2395V11.069ZM2.11043 10.2634C1.5036 10.3723 0.965111 10.7651 0.684017 11.3039C0.594209 11.476 0.547216 11.5982 0.506444 11.7655C0.333537 12.4754 0.548164 13.2034 1.07942 13.709C1.68931 14.2895 2.59795 14.4264 3.35216 14.0514C3.76202 13.8477 4.07232 13.5342 4.27372 13.1206C4.42286 12.8142 4.48056 12.5317 4.46735 12.1726C4.4556 11.8537 4.40289 11.6405 4.2659 11.3579C3.99146 10.7917 3.43041 10.3707 2.8065 10.2627C2.63956 10.2338 2.27346 10.2342 2.11043 10.2634ZM18.0609 10.2611C17.3294 10.3945 16.7429 10.8891 16.5002 11.5773C16.4185 11.8089 16.3904 11.9804 16.3904 12.2466C16.3904 12.5128 16.4185 12.6844 16.5002 12.916C16.7005 13.4837 17.1637 13.9476 17.7301 14.1475C18.1885 14.3092 18.7243 14.294 19.173 14.1065C19.8095 13.8405 20.2687 13.2622 20.3845 12.581C20.415 12.4017 20.4151 12.0929 20.3848 11.9122C20.2447 11.0777 19.5773 10.4078 18.7403 10.2619C18.5844 10.2346 18.2082 10.2342 18.0609 10.2611ZM2.65584 11.6755C2.81934 11.7317 2.93437 11.8369 3.01229 12.0015C3.05414 12.0899 3.0582 12.1117 3.05823 12.2473C3.05827 12.3896 3.05582 12.4012 3.0025 12.5091C2.93812 12.6395 2.84372 12.7336 2.71308 12.7977C2.63637 12.8353 2.61415 12.839 2.46587 12.8391C2.31431 12.8391 2.29621 12.8359 2.20594 12.7931C1.96158 12.6773 1.81789 12.4074 1.86487 12.1523C1.90816 11.9173 2.06433 11.7385 2.28815 11.6675C2.38043 11.6382 2.55885 11.6421 2.65584 11.6755ZM18.6464 11.6953C19.117 11.9216 19.1182 12.5795 18.6484 12.7997C18.5734 12.8349 18.5469 12.8391 18.4015 12.8391C18.2553 12.8391 18.2298 12.835 18.153 12.799C18.1059 12.7769 18.0283 12.7217 17.9807 12.6762C17.7419 12.4484 17.7325 12.081 17.9593 11.8385C18.0947 11.6937 18.2159 11.645 18.4237 11.6515C18.5399 11.6551 18.5787 11.6628 18.6464 11.6953Z" fill="#FF5C00"/>
</svg>
