<svg width="14" height="25" viewBox="0 0 14 25" fill="none" xmlns="http://www.w3.org/2000/svg">
<path fill-rule="evenodd" clip-rule="evenodd" d="M9.71484 0.178897C8.81536 0.227736 7.89842 0.461069 7.16729 0.827196C6.69609 1.06313 6.37206 1.2908 5.98399 1.65855C5.58677 2.03494 5.27194 2.44728 5.03371 2.90308C4.70141 3.5389 4.5109 4.13038 4.3808 4.93049C4.31985 5.30525 4.31646 5.41824 4.30595 7.43809L4.29494 9.55325H2.31413H0.333328V11.7745V13.9958H2.31594H4.29856V19.4146V24.8333H6.74091H9.18327V19.4146V13.9958H11.0047H12.826L12.8427 13.9038C12.8519 13.8532 13.0024 12.8887 13.1771 11.7604C13.3518 10.6321 13.5019 9.67388 13.5107 9.63107L13.5266 9.55325H11.3549H9.18327L9.18384 7.98987C9.18453 6.09002 9.20002 5.94633 9.46058 5.42197C9.68499 4.97036 10.115 4.59883 10.6085 4.4301C11.0249 4.28774 11.0802 4.28284 12.423 4.26991L13.6944 4.25766V2.36443V0.47117L13.6298 0.456485C13.5942 0.44842 13.3259 0.410644 13.0336 0.372501C11.7827 0.2094 10.515 0.135462 9.71484 0.178897Z" fill="white"/>
</svg>
