<svg width="21" height="21" viewBox="0 0 21 21" fill="none" xmlns="http://www.w3.org/2000/svg">
<path fill-rule="evenodd" clip-rule="evenodd" d="M9.60596 1.04195C9.52326 1.07276 9.39228 1.1374 9.3149 1.18564C9.23756 1.23388 7.14962 3.29127 4.67502 5.7576C1.17206 9.24895 0.157176 10.2831 0.0917293 10.4282C-0.0386659 10.7174 -0.0285619 11.2542 0.112603 11.5363C0.230357 11.7716 0.415056 11.9524 0.682707 12.0944C0.842208 12.179 0.931522 12.1894 1.65967 12.2085L2.46109 12.2295L2.45963 15.8323C2.45868 18.2754 2.4729 19.5151 2.50383 19.6833C2.59764 20.1932 2.90949 20.6015 3.36886 20.816L3.60254 20.9251L5.54641 20.9367L7.49028 20.9482V17.1996V13.451H10.0059H12.5215V17.2V20.9489L14.4653 20.937L16.4092 20.9251L16.6461 20.8146C17.0624 20.6202 17.4279 20.1634 17.4934 19.7557C17.5077 19.6667 17.5222 17.9369 17.5256 15.9117L17.5319 12.2295L18.3219 12.2088C19.0836 12.1888 19.1204 12.1839 19.3505 12.0714C19.6056 11.9467 19.836 11.7053 19.9426 11.4512C20.0383 11.2233 20.0258 10.6627 19.9199 10.4282C19.8026 10.1686 10.9061 1.29731 10.5927 1.12742C10.3417 0.991393 9.85494 0.949239 9.60596 1.04195Z" fill="white"/>
</svg>
