<svg width="23" height="22" viewBox="0 0 23 22" fill="none" xmlns="http://www.w3.org/2000/svg">
<path fill-rule="evenodd" clip-rule="evenodd" d="M7.28664 0.253117C6.49102 0.286053 5.80437 0.35996 5.29512 0.467498C3.03151 0.945399 1.43046 2.46062 0.856045 4.66861C0.62585 5.55351 0.582773 6.12477 0.540952 8.84724C0.506074 11.1198 0.544258 14.9875 0.609518 15.7916C0.732732 17.3092 1.12175 18.471 1.81471 19.3909C2.12286 19.8 2.72211 20.3793 3.11343 20.6463C3.68147 21.034 4.51448 21.384 5.24278 21.5411C6.19768 21.7471 6.87521 21.7801 10.5596 21.8002C15.6255 21.8279 16.8421 21.7571 18.0524 21.3637C18.5333 21.2074 19.2755 20.8384 19.6139 20.5875C20.9728 19.5796 21.7396 18.2069 21.9788 16.3537C22.086 15.5229 22.1111 14.5088 22.1111 11.0132C22.1111 6.76216 22.0756 5.9457 21.8459 4.91715C21.4004 2.92264 20.1684 1.45541 18.3617 0.767955C17.462 0.4256 16.7973 0.316542 15.2045 0.249876C14.2827 0.211286 8.23694 0.213766 7.28664 0.253117ZM17.6085 4.06006C18.1356 4.30228 18.4598 4.89996 18.3607 5.44684C18.3106 5.72279 18.2178 5.90847 18.0236 6.12103C17.4854 6.71001 16.5358 6.6575 16.0509 6.01194C15.8694 5.77038 15.7995 5.54915 15.8027 5.22627C15.8061 4.88008 15.8971 4.64282 16.1204 4.39848C16.4213 4.06915 16.7038 3.94845 17.1385 3.9635C17.3577 3.97107 17.4611 3.99233 17.6085 4.06006ZM12.4274 5.5725C13.5642 5.81641 14.5256 6.35201 15.3229 7.1855C16.846 8.77776 17.2854 11.1039 16.4448 13.1242C16.1581 13.8132 15.7795 14.3752 15.2384 14.9152C14.6612 15.4913 14.0693 15.8866 13.381 16.1558C10.9702 17.0986 8.30611 16.3133 6.80496 14.2172C6.35088 13.5832 5.99966 12.7435 5.86008 11.9583C5.76381 11.4168 5.76443 10.5994 5.86153 10.0565C6.28212 7.7051 8.11486 5.91029 10.4911 5.52286C10.9226 5.45252 11.9966 5.48004 12.4274 5.5725ZM10.6257 7.47481C9.92223 7.63149 9.37004 7.91475 8.87589 8.37234C7.8922 9.28334 7.49214 10.7157 7.8637 11.9966C8.21787 13.2174 9.18133 14.1613 10.4108 14.4919C10.7087 14.572 10.7987 14.581 11.3199 14.5823C11.8529 14.5835 11.9244 14.5765 12.2272 14.4923C13.4004 14.1661 14.2912 13.3572 14.6945 12.252C14.8322 11.8745 14.8918 11.5722 14.9125 11.1455C14.9934 9.48218 13.8764 7.97397 12.2291 7.52226C11.8839 7.42762 10.9602 7.40027 10.6257 7.47481Z" fill="white"/>
</svg>
