<svg width="20" height="20" viewBox="0 0 20 20" fill="none" xmlns="http://www.w3.org/2000/svg">
<path fill-rule="evenodd" clip-rule="evenodd" d="M9.27413 0.0110727C9.19588 0.0201969 8.95808 0.0474881 8.74568 0.0717244C6.78612 0.29535 4.77137 1.22627 3.27584 2.59906C2.30295 3.49205 1.59535 4.44179 1.0184 5.62883C0.32027 7.06525 0.0272217 8.35392 0.0272217 9.98728C0.0272217 11.6206 0.32027 12.9093 1.0184 14.3457C2.50198 17.3982 5.33214 19.4369 8.74568 19.912C9.2495 19.9821 10.7622 19.9821 11.266 19.912C12.8385 19.6931 14.2591 19.1612 15.521 18.3189C16.147 17.9011 16.4769 17.6338 16.9949 17.1249C17.8533 16.2815 18.4678 15.427 18.9933 14.3457C20.7982 10.6321 20.139 6.21417 17.328 3.18484C15.7734 1.50948 13.7002 0.423456 11.4125 0.0859403C11.0171 0.0276103 9.56743 -0.0231432 9.27413 0.0110727ZM11.8351 4.79058C12.553 4.84667 13.0687 5.07409 13.5949 5.56671C14.303 6.22969 14.6161 6.9426 14.6151 7.88953C14.6146 8.35653 14.6036 8.43067 14.4826 8.7848C14.3296 9.23274 14.1933 9.48431 13.9197 9.82337C13.5534 10.2774 13.0206 10.6338 12.4245 10.8233C12.1611 10.907 12.0267 10.9162 10.6156 10.9463C9.77718 10.9641 9.08604 10.9802 9.0797 10.982C9.0734 10.9838 9.0734 11.1915 9.0797 11.4435L9.09121 11.9017L10.6359 11.9221C11.7382 11.9367 12.2052 11.9566 12.2665 11.9918C12.4169 12.0782 12.6025 12.3228 12.6303 12.4712C12.6786 12.7288 12.6172 12.9039 12.4076 13.1071C12.161 13.3461 12.1536 13.347 10.4225 13.3474L9.07088 13.3478L9.07064 13.969C9.07039 14.703 9.03812 14.8496 8.84117 15.0123C8.46836 15.3202 7.99328 15.2312 7.78023 14.8134C7.6969 14.6499 7.68877 14.5773 7.68877 13.9969V13.3597L7.30743 13.3369C6.88816 13.3119 6.73946 13.256 6.57678 13.0622C6.29921 12.7317 6.37576 12.2666 6.74568 12.0362C6.86592 11.9614 6.97352 11.9385 7.28226 11.9222L7.66844 11.9017L7.67995 11.4435C7.68625 11.1915 7.68625 10.9846 7.67995 10.9838C7.6736 10.983 7.49011 10.9664 7.27218 10.9469C6.82608 10.9069 6.66612 10.8369 6.51669 10.6165C6.43474 10.4955 6.42369 10.4374 6.43682 10.1967C6.45137 9.93026 6.45974 9.91026 6.61812 9.76219C6.81641 9.57686 6.99954 9.51938 7.39267 9.5191L7.686 9.51885L7.69755 7.39054C7.70864 5.34667 7.7123 5.25673 7.79039 5.12394C7.91763 4.90749 8.06942 4.81722 8.35226 4.78981C8.73808 4.75246 11.3543 4.75299 11.8351 4.79058ZM9.0971 6.36496C9.08267 6.47042 9.07088 7.22407 9.07088 8.03971V9.52272L10.5038 9.51062L11.9367 9.49849L12.203 9.37201C12.8903 9.0457 13.2576 8.33193 13.1375 7.55633C13.0571 7.03714 12.7266 6.59136 12.2287 6.33071L11.9774 6.1991L10.5504 6.18614L9.12332 6.17323L9.0971 6.36496Z" fill="white"/>
</svg>
