<svg width="18" height="21" viewBox="0 0 18 21" fill="none" xmlns="http://www.w3.org/2000/svg">
<path fill-rule="evenodd" clip-rule="evenodd" d="M8.59403 0.197923C8.01441 0.604921 6.21616 1.56673 5.48466 1.86103C5.36832 1.90782 5.12082 2.00794 4.93466 2.08347C3.6161 2.61852 1.99144 2.98369 0.460623 3.08908L0.0481225 3.11748V7.76977C0.0481225 12.9145 0.039661 12.7347 0.323292 13.6164C0.617711 14.5315 1.2387 15.6442 1.9785 16.582C2.38203 17.0935 3.5779 18.2908 4.13082 18.7369C5.71858 20.0178 7.40675 20.8489 8.66375 20.9686C10.311 21.1255 13.311 19.4217 15.2872 17.2069C16.544 15.7983 17.2947 14.4638 17.6593 12.9893C17.7479 12.6315 17.7495 12.5517 17.7637 7.87284L17.7782 3.11992L17.3218 3.09117C15.7888 2.99456 14.2306 2.63349 12.6973 2.01949C11.6412 1.59658 9.7206 0.591363 9.05954 0.115506C8.9008 0.00122455 8.86526 0.00751171 8.59403 0.197923ZM12.8967 7.49861C13.2338 7.77289 13.337 8.068 13.2268 8.44301C13.1688 8.64035 13.0609 8.75813 11.7994 10.0012C8.98719 12.7721 8.29093 13.441 8.12098 13.5346C8.00756 13.5971 7.87403 13.6309 7.74013 13.6309C7.33787 13.6309 7.37603 13.6622 5.43216 11.737C4.679 10.9911 4.61321 10.9137 4.55246 10.7025C4.39283 10.1474 4.82069 9.61049 5.42268 9.61049C5.70669 9.61049 5.96947 9.80707 6.86364 10.6886L7.7186 11.5315L7.91609 11.3515C8.02469 11.2526 8.94527 10.3536 9.96179 9.35388C10.9783 8.35413 11.8909 7.49138 11.9896 7.43663C12.1387 7.35409 12.2175 7.33972 12.4525 7.35238C12.6928 7.36529 12.76 7.3874 12.8967 7.49861Z" fill="white"/>
</svg>
