<svg width="20" height="20" viewBox="0 0 20 20" fill="none" xmlns="http://www.w3.org/2000/svg">
<path fill-rule="evenodd" clip-rule="evenodd" d="M1.00591 0.134828C0.57977 0.309251 0.296919 0.597661 0.137841 1.02001C0.0506037 1.25169 0.0496826 1.34568 0.0496826 10.009C0.0496826 18.7051 0.0502966 18.7655 0.138849 19.0008C0.238893 19.2664 0.509069 19.5956 0.752007 19.748C1.15666 20.0017 0.5967 19.9873 10.0058 19.9873C19.4149 19.9873 18.855 20.0017 19.2596 19.748C19.5028 19.5955 19.7728 19.2663 19.8731 18.9999C19.9622 18.7632 19.9625 18.7277 19.9513 9.95209L19.94 1.14193L19.8238 0.895526C19.6792 0.589251 19.4003 0.313783 19.0848 0.165765L18.8435 0.0526059L10.0497 0.0425841L1.25582 0.0325623L1.00591 0.134828ZM7.23674 1.49156C7.78052 1.78581 7.82288 2.47897 7.3174 2.81148L7.13959 2.92843L5.65604 2.94145C4.84008 2.94864 4.17249 2.96834 4.17249 2.9852C4.17249 3.00206 5.27973 4.11383 6.63297 5.45579C8.03815 6.84926 9.11981 7.95588 9.1549 8.03597C9.30793 8.38521 9.15196 8.83946 8.82148 9.00695C8.61315 9.11253 8.29902 9.11998 8.1067 9.02386C8.02951 8.9853 6.85736 7.85458 5.50192 6.51109L3.03753 4.06847L3.02385 5.54965L3.01021 7.03087L2.89249 7.20747C2.55639 7.71174 1.8053 7.66046 1.54749 7.11562C1.45455 6.91915 1.45319 6.88181 1.45319 4.49614C1.45319 2.41026 1.46258 2.05365 1.52109 1.91457C1.61161 1.69923 1.74525 1.56128 1.95758 1.46394C2.12144 1.38882 2.29486 1.38341 4.58324 1.38254L7.03341 1.38158L7.23674 1.49156ZM18.0541 1.46394C18.2664 1.56128 18.4 1.69923 18.4906 1.91457C18.5491 2.05365 18.5585 2.41026 18.5585 4.49614C18.5585 6.88181 18.5571 6.91915 18.4642 7.11562C18.2064 7.66046 17.4553 7.71174 17.1192 7.20747L17.0014 7.03087L16.9878 5.54965L16.9741 4.06847L14.5097 6.51109C13.1543 7.85458 11.9821 8.9853 11.9049 9.02386C11.558 9.19723 11.0562 9.03902 10.8829 8.70172C10.7805 8.5022 10.7699 8.23405 10.8567 8.03597C10.8918 7.95588 11.9735 6.84926 13.3787 5.45579C14.7319 4.11383 15.8392 3.00206 15.8392 2.9852C15.8392 2.96834 15.1716 2.94864 14.3556 2.94145L12.8721 2.92843L12.6942 2.81148C12.1916 2.4808 12.2306 1.79082 12.7688 1.49296L12.9663 1.38372L15.4225 1.38359C17.7179 1.3835 17.8901 1.38877 18.0541 1.46394ZM8.84017 10.7673C9.17538 10.9625 9.31736 11.426 9.14574 11.765C9.10692 11.8417 7.96854 13.0064 6.616 14.3532L4.15679 16.802L5.62297 16.8151C6.96122 16.8271 7.10385 16.8355 7.25753 16.9113C7.64902 17.1044 7.78841 17.643 7.54245 18.0122C7.46898 18.1225 7.35104 18.2225 7.22495 18.2814C7.02718 18.3737 6.98959 18.3751 4.58823 18.3751C2.48863 18.3751 2.12968 18.3657 1.98968 18.3076C1.78288 18.2218 1.64214 18.091 1.53666 17.8866C1.45753 17.7334 1.45319 17.5975 1.45319 15.2781V12.8313L1.56389 12.6293C1.86008 12.0891 2.5578 12.047 2.89249 12.5492L3.01021 12.7258L3.02385 14.2296L3.03749 15.7333L5.54578 13.2433C6.92534 11.8738 8.10341 10.7341 8.16372 10.7107C8.36595 10.6323 8.64885 10.6559 8.84017 10.7673ZM11.8603 10.7237C11.9409 10.7585 13.0548 11.8331 14.4574 13.2291C15.8082 14.5735 16.9271 15.6735 16.9438 15.6735C16.9605 15.6735 16.9803 15.0103 16.9878 14.1997L17.0014 12.7258L17.1192 12.5492C17.4538 12.047 18.1516 12.0891 18.4478 12.6293L18.5585 12.8313V15.2781C18.5585 17.5975 18.5541 17.7334 18.475 17.8866C18.3695 18.091 18.2288 18.2218 18.022 18.3076C17.882 18.3657 17.523 18.3751 15.4234 18.3751C13.0221 18.3751 12.9845 18.3737 12.7867 18.2814C12.2167 18.0152 12.197 17.1861 12.7541 16.9113C12.9078 16.8355 13.0504 16.8271 14.3887 16.8151L15.8549 16.802L13.3956 14.3532C12.0431 13.0064 10.9047 11.8417 10.8659 11.765C10.8271 11.6883 10.7954 11.5314 10.7955 11.4165C10.7961 10.8787 11.3642 10.5091 11.8603 10.7237Z" fill="white"/>
</svg>
