<svg width="22" height="19" viewBox="0 0 22 19" fill="none" xmlns="http://www.w3.org/2000/svg">
<path fill-rule="evenodd" clip-rule="evenodd" d="M20.3813 0.275248C20.1864 0.324178 17.8061 1.32969 15.4483 2.35908C14.8292 2.62936 11.4021 4.09752 7.83254 5.62165C4.263 7.14578 1.21921 8.45891 1.06855 8.5397C0.601758 8.79011 0.307718 9.12803 0.305537 9.41662C0.304411 9.56341 0.397172 9.77131 0.524722 9.90789C0.622372 10.0125 0.792908 10.0806 1.95637 10.4799C4.49253 11.3503 4.8622 11.4486 5.59464 11.4475C6.06615 11.4468 6.40768 11.3863 6.6835 11.2544C6.78344 11.2067 8.66974 9.90672 10.8753 8.36564C13.0809 6.82456 15.0108 5.48295 15.164 5.38433C15.5519 5.13454 16.0325 4.89773 16.2575 4.84551C16.4225 4.80723 16.459 4.80945 16.537 4.86243C16.6972 4.97123 16.6363 5.26091 16.3643 5.68516C16.1253 6.05776 13.4493 8.7592 11.0336 11.0665C10.0791 11.9783 9.96459 12.1003 9.84956 12.3293C9.70741 12.6123 9.709 12.957 9.85375 13.2285C10.1146 13.7177 11.1386 14.4922 15.29 17.3401C16.3385 18.0594 16.9336 18.3995 17.4357 18.5664C18.2289 18.8301 18.7211 18.7626 19.1048 18.3375C19.3001 18.121 19.452 17.8028 19.5285 17.4497C19.6306 16.9788 21.3488 5.66591 21.7664 2.71581C21.9129 1.68037 21.9288 0.939269 21.8095 0.710479C21.7036 0.507429 21.526 0.340841 21.3446 0.274519C21.1531 0.204478 20.6615 0.204879 20.3813 0.275248Z" fill="white"/>
</svg>
