<svg width="19" height="19" viewBox="0 0 19 19" fill="none" xmlns="http://www.w3.org/2000/svg">
<path fill-rule="evenodd" clip-rule="evenodd" d="M16.2656 0.0486456C15.8095 0.206634 15.1053 0.707323 14.1959 1.52022C14.029 1.66932 13.8926 1.79915 13.8926 1.80872C13.8926 1.83534 14.4252 2.06923 14.905 2.25333C15.9875 2.66868 16.625 2.79422 17.0361 2.67308C17.4865 2.54036 17.877 2.14775 18.0067 1.6972C18.1389 1.23805 18.0077 0.769325 17.6517 0.428257C17.3684 0.156905 17.0523 0.022647 16.652 0.00374921C16.4545 -0.0055749 16.4058 7.40148e-05 16.2656 0.0486456ZM10.5859 2.08774L9.69386 2.35839L8.65906 2.22355C8.08992 2.14938 7.61966 2.09251 7.61407 2.09716C7.60253 2.10676 8.70442 5.44549 8.73394 5.49032C8.74731 5.51065 8.98068 5.30254 9.50938 4.79879L10.2657 4.07821L11.1454 3.81463C11.6293 3.66969 12.033 3.54444 12.0426 3.53632C12.0593 3.52214 11.523 1.8585 11.4927 1.83066C11.4846 1.8232 11.0766 1.9389 10.5859 2.08774ZM6.11368 3.70411C5.98938 3.7461 4.9119 4.09667 3.71926 4.48316C2.2505 4.95914 1.48679 5.21763 1.35229 5.28433C0.707878 5.60382 0.257726 6.13044 0.0653474 6.78984C0.00540006 6.99527 -0.0202203 7.74855 0.0230988 8.03115C0.0973906 8.51562 0.304922 8.92103 0.661205 9.27763C0.994483 9.61121 1.42299 9.82964 1.95469 9.93697C2.04646 9.9555 4.11622 9.96617 9.44582 9.9756L16.8101 9.98863L16.9058 10.049C17.0327 10.1291 17.092 10.2471 17.092 10.4197C17.092 10.5922 17.0327 10.7103 16.9058 10.7903L16.8101 10.8507L9.43392 10.8628C2.58047 10.8741 2.04594 10.8778 1.89169 10.9138C1.39941 11.0289 1.03868 11.2089 0.729383 11.494C0.220972 11.9626 -0.0241692 12.5571 0.00765995 13.2441C0.057735 14.325 0.845876 15.179 1.96515 15.3651C2.14561 15.3951 3.06562 15.3994 9.42936 15.3995C14.6516 15.3996 16.7143 15.4066 16.7823 15.4246C16.9582 15.4712 17.1038 15.6653 17.1038 15.8531C17.1038 16.0409 16.9582 16.2349 16.7823 16.2815C16.7141 16.2996 14.3581 16.3066 8.34386 16.3067L0 16.3068V17.2146V18.1223L8.48659 18.1157C16.5099 18.1094 16.9826 18.1069 17.1464 18.0689C17.9215 17.8893 18.5568 17.3749 18.8277 16.7075C18.9536 16.3975 18.9899 16.2061 18.9899 15.8531C18.9899 15.6541 18.9763 15.4872 18.951 15.3766C18.7838 14.6449 18.2589 14.0432 17.5456 13.7653C17.0715 13.5807 17.8691 13.5987 9.58681 13.5852C2.78646 13.574 2.19479 13.5701 2.12903 13.5357C1.98295 13.4592 1.90309 13.3169 1.90309 13.1329C1.90309 12.947 1.98402 12.8151 2.15287 12.726C2.21881 12.6912 2.78693 12.6874 9.63439 12.677L17.0445 12.6656L17.2349 12.6128C18.5614 12.2449 19.2794 11.0123 18.8981 9.7575C18.673 9.01665 18.0539 8.44849 17.2264 8.22324L17.0445 8.17371L9.63439 8.16237C2.78693 8.15189 2.21881 8.14817 2.15287 8.11335C2.04799 8.05799 1.95295 7.95413 1.9264 7.86588C1.88782 7.73757 1.89717 7.2443 1.94003 7.14643C1.98231 7.0499 2.07772 6.94701 2.1655 6.90323C2.19862 6.88671 3.27446 6.53389 4.55626 6.11919C5.83806 5.70446 6.89587 5.35754 6.90693 5.34821C6.92653 5.33174 6.37578 3.62375 6.35173 3.62643C6.34509 3.62718 6.23797 3.66214 6.11368 3.70411Z" fill="#505050"/>
</svg>
