<svg width="26" height="14" viewBox="0 0 26 14" fill="none" xmlns="http://www.w3.org/2000/svg">
<path fill-rule="evenodd" clip-rule="evenodd" d="M10.7 0.400081C9.97079 0.509279 8.96477 0.877303 8.96477 1.03446C8.96477 1.10442 9.18276 1.24969 9.44891 1.3573C10.1975 1.65972 10.4786 2.4037 10.4584 4.03018C10.435 5.92123 10.2615 6.4914 9.68621 6.5677C9.05153 6.65212 8.10711 5.54647 6.75641 3.13836C6.14516 2.04836 5.53782 1.09094 5.40702 1.01088C5.11983 0.835486 1.55015 0.809524 1.06536 0.979564C0.876649 1.04576 0.72221 1.20965 0.72221 1.34402C0.72221 1.75683 2.7707 5.44163 4.05329 7.33625C6.18421 10.4836 7.93835 11.967 10.44 12.7369C11.7583 13.1428 14.2452 13.292 14.7369 12.9949C14.8695 12.9149 15.0458 12.4295 15.1285 11.9164C15.318 10.7412 15.8683 10.0733 16.4967 10.2557C16.7475 10.3282 17.4099 10.877 17.9691 11.4749C19.3901 12.9947 19.7987 13.1465 22.4693 13.1465C25.2184 13.1465 25.6822 12.9482 25.2354 11.963C25.0753 11.6096 24.1309 10.5589 23.1365 9.62763C22.1422 8.69637 21.3286 7.77661 21.3286 7.58358C21.3286 7.39055 22.0689 6.3283 22.9736 5.22284C23.8784 4.11738 24.8176 2.80165 25.061 2.29906C25.4907 1.4114 25.492 1.37751 25.1007 1.11611C24.8059 0.919119 24.0588 0.862043 22.3106 0.90267L19.9232 0.958359L18.8363 2.91659C17.7257 4.91803 16.3314 6.60654 15.7898 6.60654C15.1948 6.60654 15.0163 5.82095 15.0682 3.4279C15.1 1.94887 15.0324 0.972826 14.8886 0.841432C14.3936 0.389181 12.2668 0.165037 10.7 0.400081Z" fill="white"/>
</svg>
