<svg width="22" height="22" viewBox="0 0 22 22" fill="none" xmlns="http://www.w3.org/2000/svg">
<path fill-rule="evenodd" clip-rule="evenodd" d="M10.3924 0.220058C8.22994 0.441676 6.1897 1.28901 4.58323 2.63268C4.26523 2.89867 3.62034 3.53328 3.34109 3.85509C0.565108 7.0538 -0.00330725 11.6342 1.90666 15.4138C2.01569 15.6296 2.15031 15.8826 2.20578 15.9759L2.30665 16.1456L1.35235 18.9615C0.827499 20.5103 0.406538 21.7776 0.416857 21.7778C0.42721 21.778 1.7464 21.362 3.34839 20.8534L6.26111 19.9287L6.55031 20.076C8.7511 21.197 11.3226 21.5158 13.7703 20.9712C15.384 20.6122 16.9754 19.8202 18.2702 18.7317C19.0079 18.1116 19.9104 17.0777 20.4097 16.2806C21.2164 14.9929 21.7394 13.5119 21.9414 11.9432C22.0115 11.3988 22.0208 10.0839 21.9581 9.58235C21.6526 7.13727 20.6832 5.09323 19.0187 3.38453C17.3773 1.6995 15.3029 0.645949 12.9115 0.282827C12.3824 0.202481 10.9194 0.166044 10.3924 0.220058ZM8.19991 5.25116C8.34693 5.33272 8.46718 5.55681 8.81275 6.39329C8.98393 6.80762 9.21095 7.3503 9.31726 7.59927C9.44521 7.8989 9.51054 8.09668 9.51054 8.18434C9.51054 8.38357 9.32168 8.72119 9.00633 9.08566C8.54412 9.61991 8.51512 9.66075 8.51512 9.7775C8.51512 10.0401 9.20919 11.0308 9.87456 11.7178C10.6046 12.4717 11.4166 13.0148 12.5631 13.516C12.8962 13.6616 13.0898 13.6798 13.2161 13.5774C13.296 13.5126 14.0578 12.6022 14.182 12.4231C14.3306 12.2088 14.4715 12.1004 14.6011 12.1004C14.7669 12.1004 15.0046 12.193 15.7817 12.5604C16.9766 13.1255 17.4718 13.3832 17.5291 13.47C17.5733 13.5369 17.5794 13.6167 17.5646 13.9364C17.5461 14.3371 17.4467 14.7601 17.3073 15.0311C17.0687 15.495 16.0872 16.1672 15.483 16.2804C15.3827 16.2992 15.1818 16.3384 15.0368 16.3676C14.4882 16.4779 13.7805 16.3203 12.2479 15.7465C11.3 15.3916 10.8172 15.1518 10.141 14.7004C9.00484 13.9419 7.84687 12.7757 6.88935 11.4256C5.98647 10.1525 5.62669 9.42278 5.47954 8.56589C5.35272 7.82754 5.48797 6.98494 5.83082 6.37712C6.11578 5.87191 6.62918 5.33269 6.91002 5.24365C7.15791 5.16509 7.17417 5.16367 7.65243 5.18033C7.98735 5.19198 8.12549 5.20985 8.19991 5.25116Z" fill="white"/>
</svg>
