<svg width="24" height="15" viewBox="0 0 24 15" fill="none" xmlns="http://www.w3.org/2000/svg">
<path fill-rule="evenodd" clip-rule="evenodd" d="M8.10266 0.33587C6.29355 0.375786 4.43652 0.453157 3.77811 0.516062C2.92022 0.598025 2.33343 0.829839 1.80297 1.29632C1.43621 1.61889 1.14823 2.16433 0.963381 2.88654C0.719787 3.8384 0.585 6.25638 0.659313 8.34183C0.700794 9.50621 0.723074 9.8259 0.822885 10.6873C0.973448 11.9867 1.40078 12.857 2.11001 13.3086C2.83885 13.7727 3.67117 13.8997 6.56312 13.9877C11.0116 14.1231 16.3331 14.0858 19.4849 13.8972C20.8844 13.8135 21.3836 13.6577 22.0293 13.1033C22.3754 12.8062 22.538 12.5725 22.729 12.0979C23.0608 11.2732 23.2083 10.0286 23.2446 7.74612C23.2801 5.52421 23.138 3.56988 22.8775 2.69824C22.5879 1.72891 22.1671 1.20217 21.3877 0.83329C20.7869 0.548956 20.2524 0.483919 17.7724 0.393313C15.378 0.305828 10.7197 0.278157 8.10266 0.33587ZM13.373 5.92409C14.6258 6.49147 15.6519 6.96809 15.6532 6.98325C15.6552 7.00636 14.3199 7.61413 10.1871 9.47107L9.62491 9.72368V6.97724V4.23081L10.3601 4.56166C10.7644 4.74362 12.1202 5.35671 13.373 5.92409Z" fill="white"/>
</svg>
